<?xml version="1.0" encoding="UTF-8" standalone="no"?>
<!-- Created with Inkscape (http://www.inkscape.org/) -->

<svg
   xmlns:dc="http://purl.org/dc/elements/1.1/"
   xmlns:cc="http://creativecommons.org/ns#"
   xmlns:rdf="http://www.w3.org/1999/02/22-rdf-syntax-ns#"
   xmlns:svg="http://www.w3.org/2000/svg"
   xmlns="http://www.w3.org/2000/svg"
   xmlns:sodipodi="http://sodipodi.sourceforge.net/DTD/sodipodi-0.dtd"
   xmlns:inkscape="http://www.inkscape.org/namespaces/inkscape"
   width="159.03125"
   height="139.03125"
   id="svg8570"
   version="1.1"
   inkscape:version="0.48.4 r9939"
   sodipodi:docname="Fig3Border.pdf">
  <defs
     id="defs8572" />
  <sodipodi:namedview
     id="base"
     pagecolor="#ffffff"
     bordercolor="#666666"
     borderopacity="1.0"
     inkscape:pageopacity="0.0"
     inkscape:pageshadow="2"
     inkscape:zoom="2.8"
     inkscape:cx="142.82264"
     inkscape:cy="71.085538"
     inkscape:document-units="px"
     inkscape:current-layer="layer1"
     showgrid="true"
     inkscape:window-width="1366"
     inkscape:window-height="743"
     inkscape:window-x="0"
     inkscape:window-y="3"
     inkscape:window-maximized="1"
     fit-margin-top="0"
     fit-margin-left="0"
     fit-margin-right="0"
     fit-margin-bottom="0">
    <inkscape:grid
       type="xygrid"
       id="grid8578"
       empspacing="5"
       visible="true"
       enabled="true"
       snapvisiblegridlinesonly="true"
       originx="-224.40625px"
       originy="-654.86218px" />
  </sodipodi:namedview>
  <metadata
     id="metadata8575">
    <rdf:RDF>
      <cc:Work
         rdf:about="">
        <dc:format>image/svg+xml</dc:format>
        <dc:type
           rdf:resource="http://purl.org/dc/dcmitype/StillImage" />
        <dc:title></dc:title>
      </cc:Work>
    </rdf:RDF>
  </metadata>
  <g
     inkscape:label="Layer 1"
     inkscape:groupmode="layer"
     id="layer1"
     transform="translate(-224.40625,-258.46875)">
    <g
       id="g10079"
       transform="translate(-150,0)">
      <text
         sodipodi:linespacing="125%"
         id="text3799"
         y="320.2861"
         x="398.07123"
         style="font-size:12px;font-style:normal;font-weight:normal;line-height:125%;letter-spacing:0px;word-spacing:0px;fill:#000000;fill-opacity:1;stroke:none;font-family:Sans"
         xml:space="preserve"><tspan
           y="320.2861"
           x="398.07123"
           id="tspan3801"
           sodipodi:role="line" /></text>
      <path
         inkscape:connector-curvature="0"
         id="path5873"
         d="m 394.45856,287.98816 0,-9.46429 9.46428,0 9.46429,0 0,9.46429 0,9.46428 -9.46429,0 -9.46428,0 0,-9.46428 z"
         style="fill:#cccccc;fill-opacity:1;stroke:#000000;stroke-width:0.03571429;stroke-miterlimit:4;stroke-opacity:1;stroke-dasharray:none" />
      <path
         inkscape:connector-curvature="0"
         id="path5915"
         d="m 414.37293,308.01632 0,-9.46429 9.46428,0 9.46429,0 0,9.46429 0,9.46428 -9.46429,0 -9.46428,0 0,-9.46428 z"
         style="fill:#1a1a1a;fill-opacity:1;stroke:#000000;stroke-width:0.03571429;stroke-miterlimit:4;stroke-opacity:1;stroke-dasharray:none" />
      <text
         sodipodi:linespacing="125%"
         id="text5927"
         y="292.7861"
         x="399.49979"
         style="font-size:12px;font-style:normal;font-weight:normal;line-height:125%;letter-spacing:0px;word-spacing:0px;fill:#000000;fill-opacity:1;stroke:none;font-family:Sans"
         xml:space="preserve"><tspan
           y="292.7861"
           x="399.49979"
           id="tspan5929"
           sodipodi:role="line" /></text>
      <text
         sodipodi:linespacing="125%"
         id="text5931"
         y="294.92896"
         x="399.85693"
         style="font-size:12px;font-style:normal;font-weight:normal;line-height:125%;letter-spacing:0px;word-spacing:0px;fill:#000000;fill-opacity:1;stroke:none;font-family:Sans"
         xml:space="preserve"><tspan
           y="294.92896"
           x="399.85693"
           id="tspan5933"
           sodipodi:role="line" /></text>
      <text
         sodipodi:linespacing="125%"
         id="text5939"
         y="293.11804"
         x="398.84805"
         style="font-size:14px;font-style:normal;font-weight:normal;line-height:125%;letter-spacing:0px;word-spacing:0px;fill:#000000;fill-opacity:1;stroke:none;font-family:Sans"
         xml:space="preserve"><tspan
           y="293.11804"
           x="398.84805"
           id="tspan5941"
           sodipodi:role="line" /></text>
      <text
         sodipodi:linespacing="125%"
         id="text5943"
         y="292.36218"
         x="400"
         style="font-size:12px;font-style:normal;font-weight:normal;line-height:125%;letter-spacing:0px;word-spacing:0px;fill:#000000;fill-opacity:1;stroke:none;font-family:Sans"
         xml:space="preserve"><tspan
           y="292.36218"
           x="400"
           id="tspan5945"
           sodipodi:role="line">1</tspan></text>
      <path
         inkscape:connector-curvature="0"
         id="path5873-8"
         d="m 414.45856,287.98816 0,-9.46429 9.46428,0 9.46429,0 0,9.46429 0,9.46428 -9.46429,0 -9.46428,0 0,-9.46428 z"
         style="fill:#cccccc;fill-opacity:1;stroke:#000000;stroke-width:0.03571429;stroke-miterlimit:4;stroke-opacity:1;stroke-dasharray:none" />
      <text
         sodipodi:linespacing="125%"
         id="text5943-24"
         y="292.36218"
         x="420"
         style="font-size:12px;font-style:normal;font-weight:normal;line-height:125%;letter-spacing:0px;word-spacing:0px;fill:#000000;fill-opacity:1;stroke:none;font-family:Sans"
         xml:space="preserve"><tspan
           y="292.36218"
           x="420"
           id="tspan5945-15"
           sodipodi:role="line">1</tspan></text>
      <path
         inkscape:connector-curvature="0"
         id="path5873-4"
         d="m 434.45856,287.98816 0,-9.46429 9.46428,0 9.46429,0 0,9.46429 0,9.46428 -9.46429,0 -9.46428,0 0,-9.46428 z"
         style="fill:#cccccc;fill-opacity:1;stroke:#000000;stroke-width:0.03571429;stroke-miterlimit:4;stroke-opacity:1;stroke-dasharray:none" />
      <text
         sodipodi:linespacing="125%"
         id="text5943-3"
         y="292.36218"
         x="440"
         style="font-size:12px;font-style:normal;font-weight:normal;line-height:125%;letter-spacing:0px;word-spacing:0px;fill:#000000;fill-opacity:1;stroke:none;font-family:Sans"
         xml:space="preserve"><tspan
           y="292.36218"
           x="440"
           id="tspan5945-4"
           sodipodi:role="line">1</tspan></text>
      <path
         inkscape:connector-curvature="0"
         id="path5873-5"
         d="m 454.45856,287.98816 0,-9.46429 9.46428,0 9.46429,0 0,9.46429 0,9.46428 -9.46429,0 -9.46428,0 0,-9.46428 z"
         style="fill:#cccccc;fill-opacity:1;stroke:#000000;stroke-width:0.03571429;stroke-miterlimit:4;stroke-opacity:1;stroke-dasharray:none" />
      <text
         sodipodi:linespacing="125%"
         id="text5943-9"
         y="292.36218"
         x="460"
         style="font-size:12px;font-style:normal;font-weight:normal;line-height:125%;letter-spacing:0px;word-spacing:0px;fill:#000000;fill-opacity:1;stroke:none;font-family:Sans"
         xml:space="preserve"><tspan
           y="292.36218"
           x="460"
           id="tspan5945-2"
           sodipodi:role="line">1</tspan></text>
      <path
         inkscape:connector-curvature="0"
         id="path5873-57"
         d="m 474.45856,287.98816 0,-9.46429 9.46428,0 9.46429,0 0,9.46429 0,9.46428 -9.46429,0 -9.46428,0 0,-9.46428 z"
         style="fill:#cccccc;fill-opacity:1;stroke:#000000;stroke-width:0.03571429;stroke-miterlimit:4;stroke-opacity:1;stroke-dasharray:none" />
      <text
         sodipodi:linespacing="125%"
         id="text5943-1"
         y="292.36218"
         x="480"
         style="font-size:12px;font-style:normal;font-weight:normal;line-height:125%;letter-spacing:0px;word-spacing:0px;fill:#000000;fill-opacity:1;stroke:none;font-family:Sans"
         xml:space="preserve"><tspan
           y="292.36218"
           x="480"
           id="tspan5945-1"
           sodipodi:role="line">1</tspan></text>
      <path
         inkscape:connector-curvature="0"
         id="path5873-6"
         d="m 494.45856,287.98816 0,-9.46429 9.46428,0 9.46429,0 0,9.46429 0,9.46428 -9.46429,0 -9.46428,0 0,-9.46428 z"
         style="fill:#cccccc;fill-opacity:1;stroke:#000000;stroke-width:0.03571429;stroke-miterlimit:4;stroke-opacity:1;stroke-dasharray:none" />
      <text
         sodipodi:linespacing="125%"
         id="text5943-7"
         y="292.36218"
         x="500"
         style="font-size:12px;font-style:normal;font-weight:normal;line-height:125%;letter-spacing:0px;word-spacing:0px;fill:#000000;fill-opacity:1;stroke:none;font-family:Sans"
         xml:space="preserve"><tspan
           y="292.36218"
           x="500"
           id="tspan5945-8"
           sodipodi:role="line">1</tspan></text>
      <path
         inkscape:connector-curvature="0"
         id="path5873-89"
         d="m 494.45856,307.98816 0,-9.46429 9.46428,0 9.46429,0 0,9.46429 0,9.46428 -9.46429,0 -9.46428,0 0,-9.46428 z"
         style="fill:#cccccc;fill-opacity:1;stroke:#000000;stroke-width:0.03571429;stroke-miterlimit:4;stroke-opacity:1;stroke-dasharray:none" />
      <text
         sodipodi:linespacing="125%"
         id="text5943-2"
         y="312.36218"
         x="500"
         style="font-size:12px;font-style:normal;font-weight:normal;line-height:125%;letter-spacing:0px;word-spacing:0px;fill:#000000;fill-opacity:1;stroke:none;font-family:Sans"
         xml:space="preserve"><tspan
           y="312.36218"
           x="500"
           id="tspan5945-7"
           sodipodi:role="line">1</tspan></text>
      <path
         inkscape:connector-curvature="0"
         id="path5873-3"
         d="m 494.45856,327.98816 0,-9.46429 9.46428,0 9.46429,0 0,9.46429 0,9.46428 -9.46429,0 -9.46428,0 0,-9.46428 z"
         style="fill:#cccccc;fill-opacity:1;stroke:#000000;stroke-width:0.03571429;stroke-miterlimit:4;stroke-opacity:1;stroke-dasharray:none" />
      <text
         sodipodi:linespacing="125%"
         id="text5943-8"
         y="332.36218"
         x="500"
         style="font-size:12px;font-style:normal;font-weight:normal;line-height:125%;letter-spacing:0px;word-spacing:0px;fill:#000000;fill-opacity:1;stroke:none;font-family:Sans"
         xml:space="preserve"><tspan
           y="332.36218"
           x="500"
           id="tspan5945-9"
           sodipodi:role="line">1</tspan></text>
      <path
         inkscape:connector-curvature="0"
         id="path5873-899"
         d="m 494.45856,347.98816 0,-9.46429 9.46428,0 9.46429,0 0,9.46429 0,9.46428 -9.46429,0 -9.46428,0 0,-9.46428 z"
         style="fill:#cccccc;fill-opacity:1;stroke:#000000;stroke-width:0.03571429;stroke-miterlimit:4;stroke-opacity:1;stroke-dasharray:none" />
      <text
         sodipodi:linespacing="125%"
         id="text5943-4"
         y="352.36218"
         x="500"
         style="font-size:12px;font-style:normal;font-weight:normal;line-height:125%;letter-spacing:0px;word-spacing:0px;fill:#000000;fill-opacity:1;stroke:none;font-family:Sans"
         xml:space="preserve"><tspan
           y="352.36218"
           x="500"
           id="tspan5945-5"
           sodipodi:role="line">1</tspan></text>
      <path
         inkscape:connector-curvature="0"
         id="path5873-0"
         d="m 494.45856,367.98816 0,-9.46429 9.46428,0 9.46429,0 0,9.46429 0,9.46428 -9.46429,0 -9.46428,0 0,-9.46428 z"
         style="fill:#cccccc;fill-opacity:1;stroke:#000000;stroke-width:0.03571429;stroke-miterlimit:4;stroke-opacity:1;stroke-dasharray:none" />
      <text
         sodipodi:linespacing="125%"
         id="text5943-6"
         y="372.36218"
         x="500"
         style="font-size:12px;font-style:normal;font-weight:normal;line-height:125%;letter-spacing:0px;word-spacing:0px;fill:#000000;fill-opacity:1;stroke:none;font-family:Sans"
         xml:space="preserve"><tspan
           y="372.36218"
           x="500"
           id="tspan5945-94"
           sodipodi:role="line">1</tspan></text>
      <path
         inkscape:connector-curvature="0"
         id="path5873-34"
         d="m 474.45856,367.98816 0,-9.46429 9.46428,0 9.46429,0 0,9.46429 0,9.46428 -9.46429,0 -9.46428,0 0,-9.46428 z"
         style="fill:#cccccc;fill-opacity:1;stroke:#000000;stroke-width:0.03571429;stroke-miterlimit:4;stroke-opacity:1;stroke-dasharray:none" />
      <text
         sodipodi:linespacing="125%"
         id="text5943-35"
         y="372.36218"
         x="480"
         style="font-size:12px;font-style:normal;font-weight:normal;line-height:125%;letter-spacing:0px;word-spacing:0px;fill:#000000;fill-opacity:1;stroke:none;font-family:Sans"
         xml:space="preserve"><tspan
           y="372.36218"
           x="480"
           id="tspan5945-89"
           sodipodi:role="line">1</tspan></text>
      <path
         inkscape:connector-curvature="0"
         id="path5873-46"
         d="m 454.45856,367.98816 0,-9.46429 9.46428,0 9.46429,0 0,9.46429 0,9.46428 -9.46429,0 -9.46428,0 0,-9.46428 z"
         style="fill:#cccccc;fill-opacity:1;stroke:#000000;stroke-width:0.03571429;stroke-miterlimit:4;stroke-opacity:1;stroke-dasharray:none" />
      <text
         sodipodi:linespacing="125%"
         id="text5943-29"
         y="372.36218"
         x="460"
         style="font-size:12px;font-style:normal;font-weight:normal;line-height:125%;letter-spacing:0px;word-spacing:0px;fill:#000000;fill-opacity:1;stroke:none;font-family:Sans"
         xml:space="preserve"><tspan
           y="372.36218"
           x="460"
           id="tspan5945-22"
           sodipodi:role="line">1</tspan></text>
      <path
         inkscape:connector-curvature="0"
         id="path5873-9"
         d="m 434.45856,367.98816 0,-9.46429 9.46428,0 9.46429,0 0,9.46429 0,9.46428 -9.46429,0 -9.46428,0 0,-9.46428 z"
         style="fill:#cccccc;fill-opacity:1;stroke:#000000;stroke-width:0.03571429;stroke-miterlimit:4;stroke-opacity:1;stroke-dasharray:none" />
      <text
         sodipodi:linespacing="125%"
         id="text5943-69"
         y="372.36218"
         x="440"
         style="font-size:12px;font-style:normal;font-weight:normal;line-height:125%;letter-spacing:0px;word-spacing:0px;fill:#000000;fill-opacity:1;stroke:none;font-family:Sans"
         xml:space="preserve"><tspan
           y="372.36218"
           x="440"
           id="tspan5945-24"
           sodipodi:role="line">1</tspan></text>
      <path
         inkscape:connector-curvature="0"
         id="path5873-86"
         d="m 414.45856,367.98816 0,-9.46429 9.46428,0 9.46429,0 0,9.46429 0,9.46428 -9.46429,0 -9.46428,0 0,-9.46428 z"
         style="fill:#cccccc;fill-opacity:1;stroke:#000000;stroke-width:0.03571429;stroke-miterlimit:4;stroke-opacity:1;stroke-dasharray:none" />
      <text
         sodipodi:linespacing="125%"
         id="text5943-73"
         y="372.36218"
         x="420"
         style="font-size:12px;font-style:normal;font-weight:normal;line-height:125%;letter-spacing:0px;word-spacing:0px;fill:#000000;fill-opacity:1;stroke:none;font-family:Sans"
         xml:space="preserve"><tspan
           y="372.36218"
           x="420"
           id="tspan5945-27"
           sodipodi:role="line">1</tspan></text>
      <path
         inkscape:connector-curvature="0"
         id="path5873-31"
         d="m 394.45856,367.98816 0,-9.46429 9.46428,0 9.46429,0 0,9.46429 0,9.46428 -9.46429,0 -9.46428,0 0,-9.46428 z"
         style="fill:#cccccc;fill-opacity:1;stroke:#000000;stroke-width:0.03571429;stroke-miterlimit:4;stroke-opacity:1;stroke-dasharray:none" />
      <text
         sodipodi:linespacing="125%"
         id="text5943-10"
         y="372.36218"
         x="400"
         style="font-size:12px;font-style:normal;font-weight:normal;line-height:125%;letter-spacing:0px;word-spacing:0px;fill:#000000;fill-opacity:1;stroke:none;font-family:Sans"
         xml:space="preserve"><tspan
           y="372.36218"
           x="400"
           id="tspan5945-18"
           sodipodi:role="line">1</tspan></text>
      <path
         inkscape:connector-curvature="0"
         id="path5873-98"
         d="m 394.45856,347.98816 0,-9.46429 9.46428,0 9.46429,0 0,9.46429 0,9.46428 -9.46429,0 -9.46428,0 0,-9.46428 z"
         style="fill:#cccccc;fill-opacity:1;stroke:#000000;stroke-width:0.03571429;stroke-miterlimit:4;stroke-opacity:1;stroke-dasharray:none" />
      <text
         sodipodi:linespacing="125%"
         id="text5943-16"
         y="352.36218"
         x="400"
         style="font-size:12px;font-style:normal;font-weight:normal;line-height:125%;letter-spacing:0px;word-spacing:0px;fill:#000000;fill-opacity:1;stroke:none;font-family:Sans"
         xml:space="preserve"><tspan
           y="352.36218"
           x="400"
           id="tspan5945-184"
           sodipodi:role="line">1</tspan></text>
      <path
         inkscape:connector-curvature="0"
         id="path5873-1"
         d="m 394.45856,327.98816 0,-9.46429 9.46428,0 9.46429,0 0,9.46429 0,9.46428 -9.46429,0 -9.46428,0 0,-9.46428 z"
         style="fill:#cccccc;fill-opacity:1;stroke:#000000;stroke-width:0.03571429;stroke-miterlimit:4;stroke-opacity:1;stroke-dasharray:none" />
      <text
         sodipodi:linespacing="125%"
         id="text5943-30"
         y="332.36218"
         x="400"
         style="font-size:12px;font-style:normal;font-weight:normal;line-height:125%;letter-spacing:0px;word-spacing:0px;fill:#000000;fill-opacity:1;stroke:none;font-family:Sans"
         xml:space="preserve"><tspan
           y="332.36218"
           x="400"
           id="tspan5945-3"
           sodipodi:role="line">1</tspan></text>
      <path
         inkscape:connector-curvature="0"
         id="path5873-2"
         d="m 394.45856,307.98816 0,-9.46429 9.46428,0 9.46429,0 0,9.46429 0,9.46428 -9.46429,0 -9.46428,0 0,-9.46428 z"
         style="fill:#cccccc;fill-opacity:1;stroke:#000000;stroke-width:0.03571429;stroke-miterlimit:4;stroke-opacity:1;stroke-dasharray:none" />
      <text
         sodipodi:linespacing="125%"
         id="text5943-47"
         y="312.36218"
         x="400"
         style="font-size:12px;font-style:normal;font-weight:normal;line-height:125%;letter-spacing:0px;word-spacing:0px;fill:#000000;fill-opacity:1;stroke:none;font-family:Sans"
         xml:space="preserve"><tspan
           y="312.36218"
           x="400"
           id="tspan5945-30"
           sodipodi:role="line">1</tspan></text>
      <path
         inkscape:connector-curvature="0"
         id="path5873-7"
         d="m 434.45856,327.98816 0,-9.46429 9.46428,0 9.46429,0 0,9.46429 0,9.46428 -9.46429,0 -9.46428,0 0,-9.46428 z"
         style="fill:#cccccc;fill-opacity:1;stroke:#000000;stroke-width:0.03571429;stroke-miterlimit:4;stroke-opacity:1;stroke-dasharray:none" />
      <text
         sodipodi:linespacing="125%"
         id="text5943-65"
         y="332.36218"
         x="440"
         style="font-size:12px;font-style:normal;font-weight:normal;line-height:125%;letter-spacing:0px;word-spacing:0px;fill:#000000;fill-opacity:1;stroke:none;font-family:Sans"
         xml:space="preserve"><tspan
           y="332.36218"
           x="440"
           id="tspan5945-74"
           sodipodi:role="line">1</tspan></text>
      <path
         inkscape:connector-curvature="0"
         id="path5873-43"
         d="m 454.45856,327.98816 0,-9.46429 9.46428,0 9.46429,0 0,9.46429 0,9.46428 -9.46429,0 -9.46428,0 0,-9.46428 z"
         style="fill:#cccccc;fill-opacity:1;stroke:#000000;stroke-width:0.03571429;stroke-miterlimit:4;stroke-opacity:1;stroke-dasharray:none" />
      <text
         sodipodi:linespacing="125%"
         id="text5943-61"
         y="332.36218"
         x="460"
         style="font-size:12px;font-style:normal;font-weight:normal;line-height:125%;letter-spacing:0px;word-spacing:0px;fill:#000000;fill-opacity:1;stroke:none;font-family:Sans"
         xml:space="preserve"><tspan
           y="332.36218"
           x="460"
           id="tspan5945-87"
           sodipodi:role="line">1</tspan></text>
      <text
         sodipodi:linespacing="125%"
         id="text6385"
         y="312.38449"
         x="420.02277"
         style="font-size:12px;font-style:normal;font-weight:normal;line-height:125%;letter-spacing:0px;word-spacing:0px;fill:#ffffff;fill-opacity:1;stroke:none;font-family:Sans"
         xml:space="preserve"><tspan
           y="312.38449"
           x="420.02277"
           id="tspan6387"
           sodipodi:role="line">0</tspan></text>
      <path
         inkscape:connector-curvature="0"
         id="path5915-2"
         d="m 434.37293,308.01632 0,-9.46429 9.46428,0 9.46429,0 0,9.46429 0,9.46428 -9.46429,0 -9.46428,0 0,-9.46428 z"
         style="fill:#1a1a1a;fill-opacity:1;stroke:#000000;stroke-width:0.03571429;stroke-miterlimit:4;stroke-opacity:1;stroke-dasharray:none" />
      <text
         sodipodi:linespacing="125%"
         id="text6385-9"
         y="312.38449"
         x="440.02277"
         style="font-size:12px;font-style:normal;font-weight:normal;line-height:125%;letter-spacing:0px;word-spacing:0px;fill:#ffffff;fill-opacity:1;stroke:none;font-family:Sans"
         xml:space="preserve"><tspan
           y="312.38449"
           x="440.02277"
           id="tspan6387-1"
           sodipodi:role="line">0</tspan></text>
      <path
         inkscape:connector-curvature="0"
         id="path5915-4"
         d="m 414.37293,328.01632 0,-9.46429 9.46428,0 9.46429,0 0,9.46429 0,9.46428 -9.46429,0 -9.46428,0 0,-9.46428 z"
         style="fill:#1a1a1a;fill-opacity:1;stroke:#000000;stroke-width:0.03571429;stroke-miterlimit:4;stroke-opacity:1;stroke-dasharray:none" />
      <text
         sodipodi:linespacing="125%"
         id="text6385-7"
         y="332.38449"
         x="420.02277"
         style="font-size:12px;font-style:normal;font-weight:normal;line-height:125%;letter-spacing:0px;word-spacing:0px;fill:#ffffff;fill-opacity:1;stroke:none;font-family:Sans"
         xml:space="preserve"><tspan
           y="332.38449"
           x="420.02277"
           id="tspan6387-2"
           sodipodi:role="line">0</tspan></text>
      <path
         inkscape:connector-curvature="0"
         id="path5915-41"
         d="m 414.37293,348.01632 0,-9.46429 9.46428,0 9.46429,0 0,9.46429 0,9.46428 -9.46429,0 -9.46428,0 0,-9.46428 z"
         style="fill:#1a1a1a;fill-opacity:1;stroke:#000000;stroke-width:0.03571429;stroke-miterlimit:4;stroke-opacity:1;stroke-dasharray:none" />
      <text
         sodipodi:linespacing="125%"
         id="text6385-3"
         y="352.38449"
         x="420.02277"
         style="font-size:12px;font-style:normal;font-weight:normal;line-height:125%;letter-spacing:0px;word-spacing:0px;fill:#ffffff;fill-opacity:1;stroke:none;font-family:Sans"
         xml:space="preserve"><tspan
           y="352.38449"
           x="420.02277"
           id="tspan6387-7"
           sodipodi:role="line">0</tspan></text>
      <path
         inkscape:connector-curvature="0"
         id="path5915-48"
         d="m 434.37293,348.01632 0,-9.46429 9.46428,0 9.46429,0 0,9.46429 0,9.46428 -9.46429,0 -9.46428,0 0,-9.46428 z"
         style="fill:#1a1a1a;fill-opacity:1;stroke:#000000;stroke-width:0.03571429;stroke-miterlimit:4;stroke-opacity:1;stroke-dasharray:none" />
      <text
         sodipodi:linespacing="125%"
         id="text6385-2"
         y="352.38449"
         x="440.02277"
         style="font-size:12px;font-style:normal;font-weight:normal;line-height:125%;letter-spacing:0px;word-spacing:0px;fill:#ffffff;fill-opacity:1;stroke:none;font-family:Sans"
         xml:space="preserve"><tspan
           y="352.38449"
           x="440.02277"
           id="tspan6387-8"
           sodipodi:role="line">0</tspan></text>
      <path
         inkscape:connector-curvature="0"
         id="path6457"
         d="m 454.35077,308.0709 0,-9.5 9.5,0 9.5,0 0,9.5 0,9.5 -9.5,0 -9.5,0 0,-9.5 z"
         style="fill:#ffffff;fill-opacity:1;stroke:#000000;stroke-width:0.025;stroke-miterlimit:4;stroke-opacity:1;stroke-dasharray:none" />
      <text
         sodipodi:linespacing="125%"
         id="text6459"
         y="312.43906"
         x="460.05682"
         style="font-size:12px;font-style:normal;font-weight:normal;line-height:125%;letter-spacing:0px;word-spacing:0px;fill:#000000;fill-opacity:1;stroke:none;font-family:Sans"
         xml:space="preserve"><tspan
           y="312.43906"
           x="460.05682"
           id="tspan6461"
           sodipodi:role="line">3</tspan></text>
      <path
         inkscape:connector-curvature="0"
         id="path6457-6"
         d="m 474.35077,308.0709 0,-9.5 9.5,0 9.5,0 0,9.5 0,9.5 -9.5,0 -9.5,0 0,-9.5 z"
         style="fill:#ffffff;fill-opacity:1;stroke:#000000;stroke-width:0.025;stroke-miterlimit:4;stroke-opacity:1;stroke-dasharray:none" />
      <text
         sodipodi:linespacing="125%"
         id="text6459-5"
         y="312.43906"
         x="480.05682"
         style="font-size:12px;font-style:normal;font-weight:normal;line-height:125%;letter-spacing:0px;word-spacing:0px;fill:#000000;fill-opacity:1;stroke:none;font-family:Sans"
         xml:space="preserve"><tspan
           y="312.43906"
           x="480.05682"
           id="tspan6461-1"
           sodipodi:role="line">3</tspan></text>
      <path
         inkscape:connector-curvature="0"
         id="path6457-5"
         d="m 474.35077,328.0709 0,-9.5 9.5,0 9.5,0 0,9.5 0,9.5 -9.5,0 -9.5,0 0,-9.5 z"
         style="fill:#ffffff;fill-opacity:1;stroke:#000000;stroke-width:0.025;stroke-miterlimit:4;stroke-opacity:1;stroke-dasharray:none" />
      <text
         sodipodi:linespacing="125%"
         id="text6459-3"
         y="332.43906"
         x="480.05682"
         style="font-size:12px;font-style:normal;font-weight:normal;line-height:125%;letter-spacing:0px;word-spacing:0px;fill:#000000;fill-opacity:1;stroke:none;font-family:Sans"
         xml:space="preserve"><tspan
           y="332.43906"
           x="480.05682"
           id="tspan6461-6"
           sodipodi:role="line">3</tspan></text>
      <path
         inkscape:connector-curvature="0"
         id="path6457-4"
         d="m 474.35077,348.0709 0,-9.5 9.5,0 9.5,0 0,9.5 0,9.5 -9.5,0 -9.5,0 0,-9.5 z"
         style="fill:#ffffff;fill-opacity:1;stroke:#000000;stroke-width:0.025;stroke-miterlimit:4;stroke-opacity:1;stroke-dasharray:none" />
      <text
         sodipodi:linespacing="125%"
         id="text6459-8"
         y="352.43906"
         x="480.05682"
         style="font-size:12px;font-style:normal;font-weight:normal;line-height:125%;letter-spacing:0px;word-spacing:0px;fill:#000000;fill-opacity:1;stroke:none;font-family:Sans"
         xml:space="preserve"><tspan
           y="352.43906"
           x="480.05682"
           id="tspan6461-2"
           sodipodi:role="line">3</tspan></text>
      <path
         inkscape:connector-curvature="0"
         id="path6457-7"
         d="m 454.35077,348.0709 0,-9.5 9.5,0 9.5,0 0,9.5 0,9.5 -9.5,0 -9.5,0 0,-9.5 z"
         style="fill:#ffffff;fill-opacity:1;stroke:#000000;stroke-width:0.025;stroke-miterlimit:4;stroke-opacity:1;stroke-dasharray:none" />
      <text
         sodipodi:linespacing="125%"
         id="text6459-4"
         y="352.43906"
         x="460.05682"
         style="font-size:12px;font-style:normal;font-weight:normal;line-height:125%;letter-spacing:0px;word-spacing:0px;fill:#000000;fill-opacity:1;stroke:none;font-family:Sans"
         xml:space="preserve"><tspan
           y="352.43906"
           x="460.05682"
           id="tspan6461-3"
           sodipodi:role="line">3</tspan></text>
      <path
         inkscape:connector-curvature="0"
         id="path5873-36"
         d="m 394.45856,267.98816 0,-9.46429 9.46428,0 9.46429,0 0,9.46429 0,9.46428 -9.46429,0 -9.46428,0 0,-9.46428 z"
         style="fill:#cccccc;fill-opacity:1;stroke:#000000;stroke-width:0.03571429;stroke-miterlimit:4;stroke-opacity:1;stroke-dasharray:none" />
      <text
         sodipodi:linespacing="125%"
         id="text5943-93"
         y="272.36218"
         x="400"
         style="font-size:12px;font-style:normal;font-weight:normal;line-height:125%;letter-spacing:0px;word-spacing:0px;fill:#000000;fill-opacity:1;stroke:none;font-family:Sans"
         xml:space="preserve"><tspan
           y="272.36218"
           x="400"
           id="tspan5945-32"
           sodipodi:role="line">1</tspan></text>
      <path
         inkscape:connector-curvature="0"
         id="path5873-8-1"
         d="m 414.45856,267.98816 0,-9.46429 9.46428,0 9.46429,0 0,9.46429 0,9.46428 -9.46429,0 -9.46428,0 0,-9.46428 z"
         style="fill:#cccccc;fill-opacity:1;stroke:#000000;stroke-width:0.03571429;stroke-miterlimit:4;stroke-opacity:1;stroke-dasharray:none" />
      <text
         sodipodi:linespacing="125%"
         id="text5943-24-5"
         y="272.36218"
         x="420"
         style="font-size:12px;font-style:normal;font-weight:normal;line-height:125%;letter-spacing:0px;word-spacing:0px;fill:#000000;fill-opacity:1;stroke:none;font-family:Sans"
         xml:space="preserve"><tspan
           y="272.36218"
           x="420"
           id="tspan5945-15-4"
           sodipodi:role="line">1</tspan></text>
      <path
         inkscape:connector-curvature="0"
         id="path5873-4-8"
         d="m 434.45856,267.98816 0,-9.46429 9.46428,0 9.46429,0 0,9.46429 0,9.46428 -9.46429,0 -9.46428,0 0,-9.46428 z"
         style="fill:#cccccc;fill-opacity:1;stroke:#000000;stroke-width:0.03571429;stroke-miterlimit:4;stroke-opacity:1;stroke-dasharray:none" />
      <text
         sodipodi:linespacing="125%"
         id="text5943-3-6"
         y="272.36218"
         x="440"
         style="font-size:12px;font-style:normal;font-weight:normal;line-height:125%;letter-spacing:0px;word-spacing:0px;fill:#000000;fill-opacity:1;stroke:none;font-family:Sans"
         xml:space="preserve"><tspan
           y="272.36218"
           x="440"
           id="tspan5945-4-7"
           sodipodi:role="line">1</tspan></text>
      <path
         inkscape:connector-curvature="0"
         id="path5873-5-9"
         d="m 454.45856,267.98816 0,-9.46429 9.46428,0 9.46429,0 0,9.46429 0,9.46428 -9.46429,0 -9.46428,0 0,-9.46428 z"
         style="fill:#cccccc;fill-opacity:1;stroke:#000000;stroke-width:0.03571429;stroke-miterlimit:4;stroke-opacity:1;stroke-dasharray:none" />
      <text
         sodipodi:linespacing="125%"
         id="text5943-9-6"
         y="272.36218"
         x="460"
         style="font-size:12px;font-style:normal;font-weight:normal;line-height:125%;letter-spacing:0px;word-spacing:0px;fill:#000000;fill-opacity:1;stroke:none;font-family:Sans"
         xml:space="preserve"><tspan
           y="272.36218"
           x="460"
           id="tspan5945-2-6"
           sodipodi:role="line">1</tspan></text>
      <path
         inkscape:connector-curvature="0"
         id="path5873-57-1"
         d="m 474.45856,267.98816 0,-9.46429 9.46428,0 9.46429,0 0,9.46429 0,9.46428 -9.46429,0 -9.46428,0 0,-9.46428 z"
         style="fill:#cccccc;fill-opacity:1;stroke:#000000;stroke-width:0.03571429;stroke-miterlimit:4;stroke-opacity:1;stroke-dasharray:none" />
      <text
         sodipodi:linespacing="125%"
         id="text5943-1-8"
         y="272.36218"
         x="480"
         style="font-size:12px;font-style:normal;font-weight:normal;line-height:125%;letter-spacing:0px;word-spacing:0px;fill:#000000;fill-opacity:1;stroke:none;font-family:Sans"
         xml:space="preserve"><tspan
           y="272.36218"
           x="480"
           id="tspan5945-1-3"
           sodipodi:role="line">1</tspan></text>
      <path
         inkscape:connector-curvature="0"
         id="path5873-6-4"
         d="m 494.45856,267.98816 0,-9.46429 9.46428,0 9.46429,0 0,9.46429 0,9.46428 -9.46429,0 -9.46428,0 0,-9.46428 z"
         style="fill:#cccccc;fill-opacity:1;stroke:#000000;stroke-width:0.03571429;stroke-miterlimit:4;stroke-opacity:1;stroke-dasharray:none" />
      <text
         sodipodi:linespacing="125%"
         id="text5943-7-9"
         y="272.36218"
         x="500"
         style="font-size:12px;font-style:normal;font-weight:normal;line-height:125%;letter-spacing:0px;word-spacing:0px;fill:#000000;fill-opacity:1;stroke:none;font-family:Sans"
         xml:space="preserve"><tspan
           y="272.36218"
           x="500"
           id="tspan5945-8-5"
           sodipodi:role="line">1</tspan></text>
      <path
         inkscape:connector-curvature="0"
         id="path5873-66"
         d="m 394.45856,387.98816 0,-9.46429 9.46428,0 9.46429,0 0,9.46429 0,9.46428 -9.46429,0 -9.46428,0 0,-9.46428 z"
         style="fill:#cccccc;fill-opacity:1;stroke:#000000;stroke-width:0.03571429;stroke-miterlimit:4;stroke-opacity:1;stroke-dasharray:none" />
      <text
         sodipodi:linespacing="125%"
         id="text5943-72"
         y="392.36218"
         x="400"
         style="font-size:12px;font-style:normal;font-weight:normal;line-height:125%;letter-spacing:0px;word-spacing:0px;fill:#000000;fill-opacity:1;stroke:none;font-family:Sans"
         xml:space="preserve"><tspan
           y="392.36218"
           x="400"
           id="tspan5945-95"
           sodipodi:role="line">1</tspan></text>
      <path
         inkscape:connector-curvature="0"
         id="path5873-8-5"
         d="m 414.45856,387.98816 0,-9.46429 9.46428,0 9.46429,0 0,9.46429 0,9.46428 -9.46429,0 -9.46428,0 0,-9.46428 z"
         style="fill:#cccccc;fill-opacity:1;stroke:#000000;stroke-width:0.03571429;stroke-miterlimit:4;stroke-opacity:1;stroke-dasharray:none" />
      <text
         sodipodi:linespacing="125%"
         id="text5943-24-56"
         y="392.36218"
         x="420"
         style="font-size:12px;font-style:normal;font-weight:normal;line-height:125%;letter-spacing:0px;word-spacing:0px;fill:#000000;fill-opacity:1;stroke:none;font-family:Sans"
         xml:space="preserve"><tspan
           y="392.36218"
           x="420"
           id="tspan5945-15-2"
           sodipodi:role="line">1</tspan></text>
      <path
         inkscape:connector-curvature="0"
         id="path5873-4-7"
         d="m 434.45856,387.98816 0,-9.46429 9.46428,0 9.46429,0 0,9.46429 0,9.46428 -9.46429,0 -9.46428,0 0,-9.46428 z"
         style="fill:#cccccc;fill-opacity:1;stroke:#000000;stroke-width:0.03571429;stroke-miterlimit:4;stroke-opacity:1;stroke-dasharray:none" />
      <text
         sodipodi:linespacing="125%"
         id="text5943-3-3"
         y="392.36218"
         x="440"
         style="font-size:12px;font-style:normal;font-weight:normal;line-height:125%;letter-spacing:0px;word-spacing:0px;fill:#000000;fill-opacity:1;stroke:none;font-family:Sans"
         xml:space="preserve"><tspan
           y="392.36218"
           x="440"
           id="tspan5945-4-6"
           sodipodi:role="line">1</tspan></text>
      <path
         inkscape:connector-curvature="0"
         id="path5873-5-3"
         d="m 454.45856,387.98816 0,-9.46429 9.46428,0 9.46429,0 0,9.46429 0,9.46428 -9.46429,0 -9.46428,0 0,-9.46428 z"
         style="fill:#cccccc;fill-opacity:1;stroke:#000000;stroke-width:0.03571429;stroke-miterlimit:4;stroke-opacity:1;stroke-dasharray:none" />
      <text
         sodipodi:linespacing="125%"
         id="text5943-9-1"
         y="392.36218"
         x="460"
         style="font-size:12px;font-style:normal;font-weight:normal;line-height:125%;letter-spacing:0px;word-spacing:0px;fill:#000000;fill-opacity:1;stroke:none;font-family:Sans"
         xml:space="preserve"><tspan
           y="392.36218"
           x="460"
           id="tspan5945-2-4"
           sodipodi:role="line">1</tspan></text>
      <path
         inkscape:connector-curvature="0"
         id="path5873-57-2"
         d="m 474.45856,387.98816 0,-9.46429 9.46428,0 9.46429,0 0,9.46429 0,9.46428 -9.46429,0 -9.46428,0 0,-9.46428 z"
         style="fill:#cccccc;fill-opacity:1;stroke:#000000;stroke-width:0.03571429;stroke-miterlimit:4;stroke-opacity:1;stroke-dasharray:none" />
      <text
         sodipodi:linespacing="125%"
         id="text5943-1-81"
         y="392.36218"
         x="480"
         style="font-size:12px;font-style:normal;font-weight:normal;line-height:125%;letter-spacing:0px;word-spacing:0px;fill:#000000;fill-opacity:1;stroke:none;font-family:Sans"
         xml:space="preserve"><tspan
           y="392.36218"
           x="480"
           id="tspan5945-1-4"
           sodipodi:role="line">1</tspan></text>
      <path
         inkscape:connector-curvature="0"
         id="path5873-6-9"
         d="m 494.45856,387.98816 0,-9.46429 9.46428,0 9.46429,0 0,9.46429 0,9.46428 -9.46429,0 -9.46428,0 0,-9.46428 z"
         style="fill:#cccccc;fill-opacity:1;stroke:#000000;stroke-width:0.03571429;stroke-miterlimit:4;stroke-opacity:1;stroke-dasharray:none" />
      <text
         sodipodi:linespacing="125%"
         id="text5943-7-6"
         y="392.36218"
         x="500"
         style="font-size:12px;font-style:normal;font-weight:normal;line-height:125%;letter-spacing:0px;word-spacing:0px;fill:#000000;fill-opacity:1;stroke:none;font-family:Sans"
         xml:space="preserve"><tspan
           y="392.36218"
           x="500"
           id="tspan5945-8-4"
           sodipodi:role="line">1</tspan></text>
      <path
         inkscape:connector-curvature="0"
         id="path5873-6-5"
         d="m 514.45856,287.98816 0,-9.46429 9.46428,0 9.46429,0 0,9.46429 0,9.46428 -9.46429,0 -9.46428,0 0,-9.46428 z"
         style="fill:#cccccc;fill-opacity:1;stroke:#000000;stroke-width:0.03571429;stroke-miterlimit:4;stroke-opacity:1;stroke-dasharray:none" />
      <text
         sodipodi:linespacing="125%"
         id="text5943-7-69"
         y="292.36218"
         x="520"
         style="font-size:12px;font-style:normal;font-weight:normal;line-height:125%;letter-spacing:0px;word-spacing:0px;fill:#000000;fill-opacity:1;stroke:none;font-family:Sans"
         xml:space="preserve"><tspan
           y="292.36218"
           x="520"
           id="tspan5945-8-41"
           sodipodi:role="line">1</tspan></text>
      <path
         inkscape:connector-curvature="0"
         id="path5873-89-8"
         d="m 514.45856,307.98816 0,-9.46429 9.46428,0 9.46429,0 0,9.46429 0,9.46428 -9.46429,0 -9.46428,0 0,-9.46428 z"
         style="fill:#cccccc;fill-opacity:1;stroke:#000000;stroke-width:0.03571429;stroke-miterlimit:4;stroke-opacity:1;stroke-dasharray:none" />
      <text
         sodipodi:linespacing="125%"
         id="text5943-2-4"
         y="312.36218"
         x="520"
         style="font-size:12px;font-style:normal;font-weight:normal;line-height:125%;letter-spacing:0px;word-spacing:0px;fill:#000000;fill-opacity:1;stroke:none;font-family:Sans"
         xml:space="preserve"><tspan
           y="312.36218"
           x="520"
           id="tspan5945-7-4"
           sodipodi:role="line">1</tspan></text>
      <path
         inkscape:connector-curvature="0"
         id="path5873-3-4"
         d="m 514.45856,327.98816 0,-9.46429 9.46428,0 9.46429,0 0,9.46429 0,9.46428 -9.46429,0 -9.46428,0 0,-9.46428 z"
         style="fill:#cccccc;fill-opacity:1;stroke:#000000;stroke-width:0.03571429;stroke-miterlimit:4;stroke-opacity:1;stroke-dasharray:none" />
      <text
         sodipodi:linespacing="125%"
         id="text5943-8-2"
         y="332.36218"
         x="520"
         style="font-size:12px;font-style:normal;font-weight:normal;line-height:125%;letter-spacing:0px;word-spacing:0px;fill:#000000;fill-opacity:1;stroke:none;font-family:Sans"
         xml:space="preserve"><tspan
           y="332.36218"
           x="520"
           id="tspan5945-9-3"
           sodipodi:role="line">1</tspan></text>
      <path
         inkscape:connector-curvature="0"
         id="path5873-899-8"
         d="m 514.45856,347.98816 0,-9.46429 9.46428,0 9.46429,0 0,9.46429 0,9.46428 -9.46429,0 -9.46428,0 0,-9.46428 z"
         style="fill:#cccccc;fill-opacity:1;stroke:#000000;stroke-width:0.03571429;stroke-miterlimit:4;stroke-opacity:1;stroke-dasharray:none" />
      <text
         sodipodi:linespacing="125%"
         id="text5943-4-2"
         y="352.36218"
         x="520"
         style="font-size:12px;font-style:normal;font-weight:normal;line-height:125%;letter-spacing:0px;word-spacing:0px;fill:#000000;fill-opacity:1;stroke:none;font-family:Sans"
         xml:space="preserve"><tspan
           y="352.36218"
           x="520"
           id="tspan5945-5-0"
           sodipodi:role="line">1</tspan></text>
      <path
         inkscape:connector-curvature="0"
         id="path5873-0-5"
         d="m 514.45856,367.98816 0,-9.46429 9.46428,0 9.46429,0 0,9.46429 0,9.46428 -9.46429,0 -9.46428,0 0,-9.46428 z"
         style="fill:#cccccc;fill-opacity:1;stroke:#000000;stroke-width:0.03571429;stroke-miterlimit:4;stroke-opacity:1;stroke-dasharray:none" />
      <text
         sodipodi:linespacing="125%"
         id="text5943-6-9"
         y="372.36218"
         x="520"
         style="font-size:12px;font-style:normal;font-weight:normal;line-height:125%;letter-spacing:0px;word-spacing:0px;fill:#000000;fill-opacity:1;stroke:none;font-family:Sans"
         xml:space="preserve"><tspan
           y="372.36218"
           x="520"
           id="tspan5945-94-6"
           sodipodi:role="line">1</tspan></text>
      <path
         inkscape:connector-curvature="0"
         id="path5873-6-4-8"
         d="m 514.45856,267.98816 0,-9.46429 9.46428,0 9.46429,0 0,9.46429 0,9.46428 -9.46429,0 -9.46428,0 0,-9.46428 z"
         style="fill:#cccccc;fill-opacity:1;stroke:#000000;stroke-width:0.03571429;stroke-miterlimit:4;stroke-opacity:1;stroke-dasharray:none" />
      <text
         sodipodi:linespacing="125%"
         id="text5943-7-9-6"
         y="272.36218"
         x="520"
         style="font-size:12px;font-style:normal;font-weight:normal;line-height:125%;letter-spacing:0px;word-spacing:0px;fill:#000000;fill-opacity:1;stroke:none;font-family:Sans"
         xml:space="preserve"><tspan
           y="272.36218"
           x="520"
           id="tspan5945-8-5-1"
           sodipodi:role="line">1</tspan></text>
      <path
         inkscape:connector-curvature="0"
         id="path5873-6-9-6"
         d="m 514.45856,387.98816 0,-9.46429 9.46428,0 9.46429,0 0,9.46429 0,9.46428 -9.46429,0 -9.46428,0 0,-9.46428 z"
         style="fill:#cccccc;fill-opacity:1;stroke:#000000;stroke-width:0.03571429;stroke-miterlimit:4;stroke-opacity:1;stroke-dasharray:none" />
      <text
         sodipodi:linespacing="125%"
         id="text5943-7-6-1"
         y="392.36218"
         x="520"
         style="font-size:12px;font-style:normal;font-weight:normal;line-height:125%;letter-spacing:0px;word-spacing:0px;fill:#000000;fill-opacity:1;stroke:none;font-family:Sans"
         xml:space="preserve"><tspan
           y="392.36218"
           x="520"
           id="tspan5945-8-4-2"
           sodipodi:role="line">1</tspan></text>
      <path
         inkscape:connector-curvature="0"
         id="path5873-6-1"
         d="m 374.45856,287.98816 0,-9.46429 9.46428,0 9.46429,0 0,9.46429 0,9.46428 -9.46429,0 -9.46428,0 0,-9.46428 z"
         style="fill:#cccccc;fill-opacity:1;stroke:#000000;stroke-width:0.03571429;stroke-miterlimit:4;stroke-opacity:1;stroke-dasharray:none" />
      <text
         sodipodi:linespacing="125%"
         id="text5943-7-61"
         y="292.36218"
         x="380"
         style="font-size:12px;font-style:normal;font-weight:normal;line-height:125%;letter-spacing:0px;word-spacing:0px;fill:#000000;fill-opacity:1;stroke:none;font-family:Sans"
         xml:space="preserve"><tspan
           y="292.36218"
           x="380"
           id="tspan5945-8-40"
           sodipodi:role="line">1</tspan></text>
      <path
         inkscape:connector-curvature="0"
         id="path5873-89-2"
         d="m 374.45856,307.98816 0,-9.46429 9.46428,0 9.46429,0 0,9.46429 0,9.46428 -9.46429,0 -9.46428,0 0,-9.46428 z"
         style="fill:#cccccc;fill-opacity:1;stroke:#000000;stroke-width:0.03571429;stroke-miterlimit:4;stroke-opacity:1;stroke-dasharray:none" />
      <text
         sodipodi:linespacing="125%"
         id="text5943-2-2"
         y="312.36218"
         x="380"
         style="font-size:12px;font-style:normal;font-weight:normal;line-height:125%;letter-spacing:0px;word-spacing:0px;fill:#000000;fill-opacity:1;stroke:none;font-family:Sans"
         xml:space="preserve"><tspan
           y="312.36218"
           x="380"
           id="tspan5945-7-6"
           sodipodi:role="line">1</tspan></text>
      <path
         inkscape:connector-curvature="0"
         id="path5873-3-9"
         d="m 374.45856,327.98816 0,-9.46429 9.46428,0 9.46429,0 0,9.46429 0,9.46428 -9.46429,0 -9.46428,0 0,-9.46428 z"
         style="fill:#cccccc;fill-opacity:1;stroke:#000000;stroke-width:0.03571429;stroke-miterlimit:4;stroke-opacity:1;stroke-dasharray:none" />
      <text
         sodipodi:linespacing="125%"
         id="text5943-8-0"
         y="332.36218"
         x="380"
         style="font-size:12px;font-style:normal;font-weight:normal;line-height:125%;letter-spacing:0px;word-spacing:0px;fill:#000000;fill-opacity:1;stroke:none;font-family:Sans"
         xml:space="preserve"><tspan
           y="332.36218"
           x="380"
           id="tspan5945-9-5"
           sodipodi:role="line">1</tspan></text>
      <path
         inkscape:connector-curvature="0"
         id="path5873-899-5"
         d="m 374.45856,347.98816 0,-9.46429 9.46428,0 9.46429,0 0,9.46429 0,9.46428 -9.46429,0 -9.46428,0 0,-9.46428 z"
         style="fill:#cccccc;fill-opacity:1;stroke:#000000;stroke-width:0.03571429;stroke-miterlimit:4;stroke-opacity:1;stroke-dasharray:none" />
      <text
         sodipodi:linespacing="125%"
         id="text5943-4-1"
         y="352.36218"
         x="380"
         style="font-size:12px;font-style:normal;font-weight:normal;line-height:125%;letter-spacing:0px;word-spacing:0px;fill:#000000;fill-opacity:1;stroke:none;font-family:Sans"
         xml:space="preserve"><tspan
           y="352.36218"
           x="380"
           id="tspan5945-5-5"
           sodipodi:role="line">1</tspan></text>
      <path
         inkscape:connector-curvature="0"
         id="path5873-0-9"
         d="m 374.45856,367.98816 0,-9.46429 9.46428,0 9.46429,0 0,9.46429 0,9.46428 -9.46429,0 -9.46428,0 0,-9.46428 z"
         style="fill:#cccccc;fill-opacity:1;stroke:#000000;stroke-width:0.03571429;stroke-miterlimit:4;stroke-opacity:1;stroke-dasharray:none" />
      <text
         sodipodi:linespacing="125%"
         id="text5943-6-5"
         y="372.36218"
         x="380"
         style="font-size:12px;font-style:normal;font-weight:normal;line-height:125%;letter-spacing:0px;word-spacing:0px;fill:#000000;fill-opacity:1;stroke:none;font-family:Sans"
         xml:space="preserve"><tspan
           y="372.36218"
           x="380"
           id="tspan5945-94-9"
           sodipodi:role="line">1</tspan></text>
      <path
         inkscape:connector-curvature="0"
         id="path5873-6-4-2"
         d="m 374.45856,267.98816 0,-9.46429 9.46428,0 9.46429,0 0,9.46429 0,9.46428 -9.46429,0 -9.46428,0 0,-9.46428 z"
         style="fill:#cccccc;fill-opacity:1;stroke:#000000;stroke-width:0.03571429;stroke-miterlimit:4;stroke-opacity:1;stroke-dasharray:none" />
      <text
         sodipodi:linespacing="125%"
         id="text5943-7-9-0"
         y="272.36218"
         x="380"
         style="font-size:12px;font-style:normal;font-weight:normal;line-height:125%;letter-spacing:0px;word-spacing:0px;fill:#000000;fill-opacity:1;stroke:none;font-family:Sans"
         xml:space="preserve"><tspan
           y="272.36218"
           x="380"
           id="tspan5945-8-5-9"
           sodipodi:role="line">1</tspan></text>
      <path
         inkscape:connector-curvature="0"
         id="path5873-6-9-60"
         d="m 374.45856,387.98816 0,-9.46429 9.46428,0 9.46429,0 0,9.46429 0,9.46428 -9.46429,0 -9.46428,0 0,-9.46428 z"
         style="fill:#cccccc;fill-opacity:1;stroke:#000000;stroke-width:0.03571429;stroke-miterlimit:4;stroke-opacity:1;stroke-dasharray:none" />
      <text
         sodipodi:linespacing="125%"
         id="text5943-7-6-5"
         y="392.36218"
         x="380"
         style="font-size:12px;font-style:normal;font-weight:normal;line-height:125%;letter-spacing:0px;word-spacing:0px;fill:#000000;fill-opacity:1;stroke:none;font-family:Sans"
         xml:space="preserve"><tspan
           y="392.36218"
           x="380"
           id="tspan5945-8-4-5"
           sodipodi:role="line">1</tspan></text>
    </g>
  </g>
</svg>
