<?xml version="1.0" encoding="UTF-8" standalone="no"?>
<!-- Created with Inkscape (http://www.inkscape.org/) -->

<svg
   xmlns:dc="http://purl.org/dc/elements/1.1/"
   xmlns:cc="http://creativecommons.org/ns#"
   xmlns:rdf="http://www.w3.org/1999/02/22-rdf-syntax-ns#"
   xmlns:svg="http://www.w3.org/2000/svg"
   xmlns="http://www.w3.org/2000/svg"
   xmlns:sodipodi="http://sodipodi.sourceforge.net/DTD/sodipodi-0.dtd"
   xmlns:inkscape="http://www.inkscape.org/namespaces/inkscape"
   width="159.03125"
   height="139.03125"
   id="svg2"
   version="1.1"
   inkscape:version="0.48.4 r9939"
   sodipodi:docname="parent.svg">
  <defs
     id="defs4" />
  <sodipodi:namedview
     id="base"
     pagecolor="#ffffff"
     bordercolor="#666666"
     borderopacity="1.0"
     inkscape:pageopacity="0.0"
     inkscape:pageshadow="2"
     inkscape:zoom="3.959798"
     inkscape:cx="58.484578"
     inkscape:cy="67.864637"
     inkscape:document-units="px"
     inkscape:current-layer="layer1"
     showgrid="true"
     inkscape:window-width="1366"
     inkscape:window-height="743"
     inkscape:window-x="0"
     inkscape:window-y="3"
     inkscape:window-maximized="1"
     fit-margin-top="0"
     fit-margin-left="0"
     fit-margin-right="0"
     fit-margin-bottom="0">
    <inkscape:grid
       type="xygrid"
       id="grid3928"
       empspacing="5"
       visible="true"
       enabled="true"
       snapvisiblegridlinesonly="true"
       originx="-149.53125px"
       originy="-754.51843px" />
  </sodipodi:namedview>
  <metadata
     id="metadata7">
    <rdf:RDF>
      <cc:Work
         rdf:about="">
        <dc:format>image/svg+xml</dc:format>
        <dc:type
           rdf:resource="http://purl.org/dc/dcmitype/StillImage" />
        <dc:title />
      </cc:Work>
    </rdf:RDF>
  </metadata>
  <g
     inkscape:label="Layer 1"
     inkscape:groupmode="layer"
     id="layer1"
     transform="translate(-149.53125,-158.8125)">
    <g
       id="g3452">
      <text
         sodipodi:linespacing="125%"
         id="text3799"
         y="220.62819"
         x="173.20049"
         style="font-size:12px;font-style:normal;font-weight:normal;line-height:125%;letter-spacing:0px;word-spacing:0px;fill:#000000;fill-opacity:1;stroke:none;font-family:Sans"
         xml:space="preserve"><tspan
           y="220.62819"
           x="173.20049"
           id="tspan3801"
           sodipodi:role="line" /></text>
      <path
         inkscape:connector-curvature="0"
         id="path5873"
         d="m 169.58781,188.33025 0,-9.46429 9.46428,0 9.46429,0 0,9.46429 0,9.46428 -9.46429,0 -9.46428,0 0,-9.46428 z"
         style="fill:#cccccc;fill-opacity:1;stroke:#000000;stroke-width:0.03571429;stroke-miterlimit:4;stroke-opacity:1;stroke-dasharray:none" />
      <path
         inkscape:connector-curvature="0"
         id="path5915"
         d="m 189.50218,208.35841 0,-9.46429 9.46428,0 9.46429,0 0,9.46429 0,9.46428 -9.46429,0 -9.46428,0 0,-9.46428 z"
         style="fill:#1a1a1a;fill-opacity:1;stroke:#000000;stroke-width:0.03571429;stroke-miterlimit:4;stroke-opacity:1;stroke-dasharray:none" />
      <text
         sodipodi:linespacing="125%"
         id="text5927"
         y="193.12819"
         x="174.62904"
         style="font-size:12px;font-style:normal;font-weight:normal;line-height:125%;letter-spacing:0px;word-spacing:0px;fill:#000000;fill-opacity:1;stroke:none;font-family:Sans"
         xml:space="preserve"><tspan
           y="193.12819"
           x="174.62904"
           id="tspan5929"
           sodipodi:role="line" /></text>
      <text
         sodipodi:linespacing="125%"
         id="text5931"
         y="195.27104"
         x="174.98619"
         style="font-size:12px;font-style:normal;font-weight:normal;line-height:125%;letter-spacing:0px;word-spacing:0px;fill:#000000;fill-opacity:1;stroke:none;font-family:Sans"
         xml:space="preserve"><tspan
           y="195.27104"
           x="174.98619"
           id="tspan5933"
           sodipodi:role="line" /></text>
      <text
         sodipodi:linespacing="125%"
         id="text5939"
         y="193.46013"
         x="173.97731"
         style="font-size:14px;font-style:normal;font-weight:normal;line-height:125%;letter-spacing:0px;word-spacing:0px;fill:#000000;fill-opacity:1;stroke:none;font-family:Sans"
         xml:space="preserve"><tspan
           y="193.46013"
           x="173.97731"
           id="tspan5941"
           sodipodi:role="line" /></text>
      <path
         inkscape:connector-curvature="0"
         id="path5873-8"
         d="m 189.58781,188.33025 0,-9.46429 9.46428,0 9.46429,0 0,9.46429 0,9.46428 -9.46429,0 -9.46428,0 0,-9.46428 z"
         style="fill:#cccccc;fill-opacity:1;stroke:#000000;stroke-width:0.03571429;stroke-miterlimit:4;stroke-opacity:1;stroke-dasharray:none" />
      <path
         inkscape:connector-curvature="0"
         id="path5873-4"
         d="m 209.58781,188.33025 0,-9.46429 9.46428,0 9.46429,0 0,9.46429 0,9.46428 -9.46429,0 -9.46428,0 0,-9.46428 z"
         style="fill:#cccccc;fill-opacity:1;stroke:#000000;stroke-width:0.03571429;stroke-miterlimit:4;stroke-opacity:1;stroke-dasharray:none" />
      <path
         inkscape:connector-curvature="0"
         id="path5873-5"
         d="m 229.58781,188.33025 0,-9.46429 9.46428,0 9.46429,0 0,9.46429 0,9.46428 -9.46429,0 -9.46428,0 0,-9.46428 z"
         style="fill:#cccccc;fill-opacity:1;stroke:#000000;stroke-width:0.03571429;stroke-miterlimit:4;stroke-opacity:1;stroke-dasharray:none" />
      <path
         inkscape:connector-curvature="0"
         id="path5873-57"
         d="m 249.58781,188.33025 0,-9.46429 9.46428,0 9.46429,0 0,9.46429 0,9.46428 -9.46429,0 -9.46428,0 0,-9.46428 z"
         style="fill:#cccccc;fill-opacity:1;stroke:#000000;stroke-width:0.03571429;stroke-miterlimit:4;stroke-opacity:1;stroke-dasharray:none" />
      <path
         inkscape:connector-curvature="0"
         id="path5873-6"
         d="m 269.58781,188.33025 0,-9.46429 9.46428,0 9.46429,0 0,9.46429 0,9.46428 -9.46429,0 -9.46428,0 0,-9.46428 z"
         style="fill:#cccccc;fill-opacity:1;stroke:#000000;stroke-width:0.03571429;stroke-miterlimit:4;stroke-opacity:1;stroke-dasharray:none" />
      <path
         inkscape:connector-curvature="0"
         id="path5873-89"
         d="m 269.58781,208.33025 0,-9.46429 9.46428,0 9.46429,0 0,9.46429 0,9.46428 -9.46429,0 -9.46428,0 0,-9.46428 z"
         style="fill:#cccccc;fill-opacity:1;stroke:#000000;stroke-width:0.03571429;stroke-miterlimit:4;stroke-opacity:1;stroke-dasharray:none" />
      <path
         inkscape:connector-curvature="0"
         id="path5873-3"
         d="m 269.58781,228.33025 0,-9.46429 9.46428,0 9.46429,0 0,9.46429 0,9.46428 -9.46429,0 -9.46428,0 0,-9.46428 z"
         style="fill:#cccccc;fill-opacity:1;stroke:#000000;stroke-width:0.03571429;stroke-miterlimit:4;stroke-opacity:1;stroke-dasharray:none" />
      <path
         inkscape:connector-curvature="0"
         id="path5873-899"
         d="m 269.58781,248.33025 0,-9.46429 9.46428,0 9.46429,0 0,9.46429 0,9.46428 -9.46429,0 -9.46428,0 0,-9.46428 z"
         style="fill:#cccccc;fill-opacity:1;stroke:#000000;stroke-width:0.03571429;stroke-miterlimit:4;stroke-opacity:1;stroke-dasharray:none" />
      <path
         inkscape:connector-curvature="0"
         id="path5873-0"
         d="m 269.58781,268.33025 0,-9.46429 9.46428,0 9.46429,0 0,9.46429 0,9.46428 -9.46429,0 -9.46428,0 0,-9.46428 z"
         style="fill:#cccccc;fill-opacity:1;stroke:#000000;stroke-width:0.03571429;stroke-miterlimit:4;stroke-opacity:1;stroke-dasharray:none" />
      <path
         inkscape:connector-curvature="0"
         id="path5873-34"
         d="m 249.58781,268.33025 0,-9.46429 9.46428,0 9.46429,0 0,9.46429 0,9.46428 -9.46429,0 -9.46428,0 0,-9.46428 z"
         style="fill:#cccccc;fill-opacity:1;stroke:#000000;stroke-width:0.03571429;stroke-miterlimit:4;stroke-opacity:1;stroke-dasharray:none" />
      <path
         inkscape:connector-curvature="0"
         id="path5873-46"
         d="m 229.58781,268.33025 0,-9.46429 9.46428,0 9.46429,0 0,9.46429 0,9.46428 -9.46429,0 -9.46428,0 0,-9.46428 z"
         style="fill:#cccccc;fill-opacity:1;stroke:#000000;stroke-width:0.03571429;stroke-miterlimit:4;stroke-opacity:1;stroke-dasharray:none" />
      <path
         inkscape:connector-curvature="0"
         id="path5873-9"
         d="m 209.58781,268.33025 0,-9.46429 9.46428,0 9.46429,0 0,9.46429 0,9.46428 -9.46429,0 -9.46428,0 0,-9.46428 z"
         style="fill:#cccccc;fill-opacity:1;stroke:#000000;stroke-width:0.03571429;stroke-miterlimit:4;stroke-opacity:1;stroke-dasharray:none" />
      <path
         inkscape:connector-curvature="0"
         id="path5873-86"
         d="m 189.58781,268.33025 0,-9.46429 9.46428,0 9.46429,0 0,9.46429 0,9.46428 -9.46429,0 -9.46428,0 0,-9.46428 z"
         style="fill:#cccccc;fill-opacity:1;stroke:#000000;stroke-width:0.03571429;stroke-miterlimit:4;stroke-opacity:1;stroke-dasharray:none" />
      <path
         inkscape:connector-curvature="0"
         id="path5873-31"
         d="m 169.58781,268.33025 0,-9.46429 9.46428,0 9.46429,0 0,9.46429 0,9.46428 -9.46429,0 -9.46428,0 0,-9.46428 z"
         style="fill:#cccccc;fill-opacity:1;stroke:#000000;stroke-width:0.03571429;stroke-miterlimit:4;stroke-opacity:1;stroke-dasharray:none" />
      <path
         inkscape:connector-curvature="0"
         id="path5873-98"
         d="m 169.58781,248.33025 0,-9.46429 9.46428,0 9.46429,0 0,9.46429 0,9.46428 -9.46429,0 -9.46428,0 0,-9.46428 z"
         style="fill:#cccccc;fill-opacity:1;stroke:#000000;stroke-width:0.03571429;stroke-miterlimit:4;stroke-opacity:1;stroke-dasharray:none" />
      <path
         inkscape:connector-curvature="0"
         id="path5873-1"
         d="m 169.58781,228.33025 0,-9.46429 9.46428,0 9.46429,0 0,9.46429 0,9.46428 -9.46429,0 -9.46428,0 0,-9.46428 z"
         style="fill:#cccccc;fill-opacity:1;stroke:#000000;stroke-width:0.03571429;stroke-miterlimit:4;stroke-opacity:1;stroke-dasharray:none" />
      <path
         inkscape:connector-curvature="0"
         id="path5873-2"
         d="m 169.58781,208.33025 0,-9.46429 9.46428,0 9.46429,0 0,9.46429 0,9.46428 -9.46429,0 -9.46428,0 0,-9.46428 z"
         style="fill:#cccccc;fill-opacity:1;stroke:#000000;stroke-width:0.03571429;stroke-miterlimit:4;stroke-opacity:1;stroke-dasharray:none" />
      <path
         inkscape:connector-curvature="0"
         id="path5873-7"
         d="m 209.58781,228.33025 0,-9.46429 9.46428,0 9.46429,0 0,9.46429 0,9.46428 -9.46429,0 -9.46428,0 0,-9.46428 z"
         style="fill:#cccccc;fill-opacity:1;stroke:#000000;stroke-width:0.03571429;stroke-miterlimit:4;stroke-opacity:1;stroke-dasharray:none" />
      <path
         inkscape:connector-curvature="0"
         id="path5873-43"
         d="m 229.58781,228.33025 0,-9.46429 9.46428,0 9.46429,0 0,9.46429 0,9.46428 -9.46429,0 -9.46428,0 0,-9.46428 z"
         style="fill:#cccccc;fill-opacity:1;stroke:#000000;stroke-width:0.03571429;stroke-miterlimit:4;stroke-opacity:1;stroke-dasharray:none" />
      <text
         sodipodi:linespacing="125%"
         id="text6385"
         y="212.72658"
         x="195.15202"
         style="font-size:12px;font-style:normal;font-weight:normal;line-height:125%;letter-spacing:0px;word-spacing:0px;fill:#ffffff;fill-opacity:1;stroke:none;font-family:Sans"
         xml:space="preserve"><tspan
           y="212.72658"
           x="195.15202"
           id="tspan6387"
           sodipodi:role="line">0</tspan></text>
      <path
         inkscape:connector-curvature="0"
         id="path5915-2"
         d="m 210.05911,208.35841 0,-9.46429 9.46428,0 9.46429,0 0,9.46429 0,9.46428 -9.46429,0 -9.46428,0 0,-9.46428 z"
         style="fill:#1a1a1a;fill-opacity:1;stroke:#000000;stroke-width:0.03571429;stroke-miterlimit:4;stroke-opacity:1;stroke-dasharray:none" />
      <text
         sodipodi:linespacing="125%"
         id="text6385-9"
         y="212.72658"
         x="211.63667"
         style="font-size:12px;font-style:normal;font-weight:normal;line-height:125%;letter-spacing:0px;word-spacing:0px;fill:#ffffff;fill-opacity:1;stroke:none;font-family:Sans"
         xml:space="preserve"><tspan
           y="212.72658"
           x="211.63667"
           id="tspan6387-1"
           sodipodi:role="line">18</tspan></text>
      <path
         inkscape:connector-curvature="0"
         id="path5915-4"
         d="m 190.05911,228.35841 0,-9.46429 9.46428,0 9.46429,0 0,9.46429 0,9.46428 -9.46429,0 -9.46428,0 0,-9.46428 z"
         style="fill:#1a1a1a;fill-opacity:1;stroke:#000000;stroke-width:0.03571429;stroke-miterlimit:4;stroke-opacity:1;stroke-dasharray:none" />
      <text
         sodipodi:linespacing="125%"
         id="text6385-7"
         y="232.72658"
         x="191.63667"
         style="font-size:12px;font-style:normal;font-weight:normal;line-height:125%;letter-spacing:0px;word-spacing:0px;fill:#ffffff;fill-opacity:1;stroke:none;font-family:Sans"
         xml:space="preserve"><tspan
           y="232.72658"
           x="191.63667"
           id="tspan6387-2"
           sodipodi:role="line">18</tspan></text>
      <path
         inkscape:connector-curvature="0"
         id="path5915-41"
         d="m 190.05911,248.35841 0,-9.46429 9.46428,0 9.46429,0 0,9.46429 0,9.46428 -9.46429,0 -9.46428,0 0,-9.46428 z"
         style="fill:#1a1a1a;fill-opacity:1;stroke:#000000;stroke-width:0.03571429;stroke-miterlimit:4;stroke-opacity:1;stroke-dasharray:none" />
      <text
         sodipodi:linespacing="125%"
         id="text6385-3"
         y="252.72658"
         x="191.63667"
         style="font-size:12px;font-style:normal;font-weight:normal;line-height:125%;letter-spacing:0px;word-spacing:0px;fill:#ffffff;fill-opacity:1;stroke:none;font-family:Sans"
         xml:space="preserve"><tspan
           y="252.72658"
           x="191.63667"
           id="tspan6387-7"
           sodipodi:role="line">18</tspan></text>
      <path
         inkscape:connector-curvature="0"
         id="path5915-48"
         d="m 210.05911,248.35841 0,-9.46429 9.46428,0 9.46429,0 0,9.46429 0,9.46428 -9.46429,0 -9.46428,0 0,-9.46428 z"
         style="fill:#1a1a1a;fill-opacity:1;stroke:#000000;stroke-width:0.03571429;stroke-miterlimit:4;stroke-opacity:1;stroke-dasharray:none" />
      <text
         sodipodi:linespacing="125%"
         id="text6385-2"
         y="252.72658"
         x="211.63667"
         style="font-size:12px;font-style:normal;font-weight:normal;line-height:125%;letter-spacing:0px;word-spacing:0px;fill:#ffffff;fill-opacity:1;stroke:none;font-family:Sans"
         xml:space="preserve"><tspan
           y="252.72658"
           x="211.63667"
           id="tspan6387-8"
           sodipodi:role="line">18</tspan></text>
      <path
         inkscape:connector-curvature="0"
         id="path6457"
         d="m 229.48002,208.41299 0,-9.5 9.5,0 9.5,0 0,9.5 0,9.5 -9.5,0 -9.5,0 0,-9.5 z"
         style="fill:#ffffff;fill-opacity:1;stroke:#000000;stroke-width:0.025;stroke-miterlimit:4;stroke-opacity:1;stroke-dasharray:none" />
      <text
         sodipodi:linespacing="125%"
         id="text6459"
         y="212.78114"
         x="233.25542"
         style="font-size:12px;font-style:normal;font-weight:normal;line-height:125%;letter-spacing:0px;word-spacing:0px;fill:#000000;fill-opacity:1;stroke:none;font-family:Sans"
         xml:space="preserve"><tspan
           y="212.78114"
           x="233.25542"
           id="tspan6461"
           sodipodi:role="line">-1</tspan></text>
      <path
         inkscape:connector-curvature="0"
         id="path6457-6"
         d="m 249.48002,208.41299 0,-9.5 9.5,0 9.5,0 0,9.5 0,9.5 -9.5,0 -9.5,0 0,-9.5 z"
         style="fill:#ffffff;fill-opacity:1;stroke:#000000;stroke-width:0.025;stroke-miterlimit:4;stroke-opacity:1;stroke-dasharray:none" />
      <text
         sodipodi:linespacing="125%"
         id="text6459-5"
         y="212.78114"
         x="253.25542"
         style="font-size:12px;font-style:normal;font-weight:normal;line-height:125%;letter-spacing:0px;word-spacing:0px;fill:#000000;fill-opacity:1;stroke:none;font-family:Sans"
         xml:space="preserve"><tspan
           y="212.78114"
           x="253.25542"
           id="tspan6461-1"
           sodipodi:role="line">-1</tspan></text>
      <path
         inkscape:connector-curvature="0"
         id="path6457-5"
         d="m 249.48002,228.41299 0,-9.5 9.5,0 9.5,0 0,9.5 0,9.5 -9.5,0 -9.5,0 0,-9.5 z"
         style="fill:#ffffff;fill-opacity:1;stroke:#000000;stroke-width:0.025;stroke-miterlimit:4;stroke-opacity:1;stroke-dasharray:none" />
      <text
         sodipodi:linespacing="125%"
         id="text6459-3"
         y="232.78114"
         x="253.25542"
         style="font-size:12px;font-style:normal;font-weight:normal;line-height:125%;letter-spacing:0px;word-spacing:0px;fill:#000000;fill-opacity:1;stroke:none;font-family:Sans"
         xml:space="preserve"><tspan
           y="232.78114"
           x="253.25542"
           id="tspan6461-6"
           sodipodi:role="line">-1</tspan></text>
      <path
         inkscape:connector-curvature="0"
         id="path6457-4"
         d="m 249.48002,248.41299 0,-9.5 9.5,0 9.5,0 0,9.5 0,9.5 -9.5,0 -9.5,0 0,-9.5 z"
         style="fill:#ffffff;fill-opacity:1;stroke:#000000;stroke-width:0.025;stroke-miterlimit:4;stroke-opacity:1;stroke-dasharray:none" />
      <text
         sodipodi:linespacing="125%"
         id="text6459-8"
         y="252.78114"
         x="253.25542"
         style="font-size:12px;font-style:normal;font-weight:normal;line-height:125%;letter-spacing:0px;word-spacing:0px;fill:#000000;fill-opacity:1;stroke:none;font-family:Sans"
         xml:space="preserve"><tspan
           y="252.78114"
           x="253.25542"
           id="tspan6461-2"
           sodipodi:role="line">-1</tspan></text>
      <path
         inkscape:connector-curvature="0"
         id="path6457-7"
         d="m 229.48002,248.41299 0,-9.5 9.5,0 9.5,0 0,9.5 0,9.5 -9.5,0 -9.5,0 0,-9.5 z"
         style="fill:#ffffff;fill-opacity:1;stroke:#000000;stroke-width:0.025;stroke-miterlimit:4;stroke-opacity:1;stroke-dasharray:none" />
      <text
         sodipodi:linespacing="125%"
         id="text6459-4"
         y="252.78114"
         x="233.25542"
         style="font-size:12px;font-style:normal;font-weight:normal;line-height:125%;letter-spacing:0px;word-spacing:0px;fill:#000000;fill-opacity:1;stroke:none;font-family:Sans"
         xml:space="preserve"><tspan
           y="252.78114"
           x="233.25542"
           id="tspan6461-3"
           sodipodi:role="line">-1</tspan></text>
      <path
         inkscape:connector-curvature="0"
         id="path5873-36"
         d="m 169.58781,168.33025 0,-9.46429 9.46428,0 9.46429,0 0,9.46429 0,9.46428 -9.46429,0 -9.46428,0 0,-9.46428 z"
         style="fill:#cccccc;fill-opacity:1;stroke:#000000;stroke-width:0.03571429;stroke-miterlimit:4;stroke-opacity:1;stroke-dasharray:none" />
      <path
         inkscape:connector-curvature="0"
         id="path5873-8-1"
         d="m 189.5198,168.33025 0,-9.46429 9.46428,0 9.46429,0 0,9.46429 0,9.46428 -9.46429,0 -9.46428,0 0,-9.46428 z"
         style="fill:#cccccc;fill-opacity:1;stroke:#000000;stroke-width:0.03571429;stroke-miterlimit:4;stroke-opacity:1;stroke-dasharray:none" />
      <path
         inkscape:connector-curvature="0"
         id="path5873-4-8"
         d="m 209.58781,168.33025 0,-9.46429 9.46428,0 9.46429,0 0,9.46429 0,9.46428 -9.46429,0 -9.46428,0 0,-9.46428 z"
         style="fill:#cccccc;fill-opacity:1;stroke:#000000;stroke-width:0.03571429;stroke-miterlimit:4;stroke-opacity:1;stroke-dasharray:none" />
      <path
         inkscape:connector-curvature="0"
         id="path5873-5-9"
         d="m 229.58781,168.33025 0,-9.46429 9.46428,0 9.46429,0 0,9.46429 0,9.46428 -9.46429,0 -9.46428,0 0,-9.46428 z"
         style="fill:#cccccc;fill-opacity:1;stroke:#000000;stroke-width:0.03571429;stroke-miterlimit:4;stroke-opacity:1;stroke-dasharray:none" />
      <path
         inkscape:connector-curvature="0"
         id="path5873-57-1"
         d="m 249.5198,168.33025 0,-9.46429 9.46428,0 9.46429,0 0,9.46429 0,9.46428 -9.46429,0 -9.46428,0 0,-9.46428 z"
         style="fill:#cccccc;fill-opacity:1;stroke:#000000;stroke-width:0.03571429;stroke-miterlimit:4;stroke-opacity:1;stroke-dasharray:none" />
      <path
         inkscape:connector-curvature="0"
         id="path5873-6-4"
         d="m 269.58781,168.33025 0,-9.46429 9.46428,0 9.46429,0 0,9.46429 0,9.46428 -9.46429,0 -9.46428,0 0,-9.46428 z"
         style="fill:#cccccc;fill-opacity:1;stroke:#000000;stroke-width:0.03571429;stroke-miterlimit:4;stroke-opacity:1;stroke-dasharray:none" />
      <path
         inkscape:connector-curvature="0"
         id="path5873-66"
         d="m 169.58781,288.33025 0,-9.46429 9.46428,0 9.46429,0 0,9.46429 0,9.46428 -9.46429,0 -9.46428,0 0,-9.46428 z"
         style="fill:#cccccc;fill-opacity:1;stroke:#000000;stroke-width:0.03571429;stroke-miterlimit:4;stroke-opacity:1;stroke-dasharray:none" />
      <path
         inkscape:connector-curvature="0"
         id="path5873-8-5"
         d="m 189.58781,288.33025 0,-9.46429 9.46428,0 9.46429,0 0,9.46429 0,9.46428 -9.46429,0 -9.46428,0 0,-9.46428 z"
         style="fill:#cccccc;fill-opacity:1;stroke:#000000;stroke-width:0.03571429;stroke-miterlimit:4;stroke-opacity:1;stroke-dasharray:none" />
      <path
         inkscape:connector-curvature="0"
         id="path5873-4-7"
         d="m 209.58781,288.33025 0,-9.46429 9.46428,0 9.46429,0 0,9.46429 0,9.46428 -9.46429,0 -9.46428,0 0,-9.46428 z"
         style="fill:#cccccc;fill-opacity:1;stroke:#000000;stroke-width:0.03571429;stroke-miterlimit:4;stroke-opacity:1;stroke-dasharray:none" />
      <path
         inkscape:connector-curvature="0"
         id="path5873-5-3"
         d="m 229.58781,288.33025 0,-9.46429 9.46428,0 9.46429,0 0,9.46429 0,9.46428 -9.46429,0 -9.46428,0 0,-9.46428 z"
         style="fill:#cccccc;fill-opacity:1;stroke:#000000;stroke-width:0.03571429;stroke-miterlimit:4;stroke-opacity:1;stroke-dasharray:none" />
      <path
         inkscape:connector-curvature="0"
         id="path5873-57-2"
         d="m 249.58781,288.33025 0,-9.46429 9.46428,0 9.46429,0 0,9.46429 0,9.46428 -9.46429,0 -9.46428,0 0,-9.46428 z"
         style="fill:#cccccc;fill-opacity:1;stroke:#000000;stroke-width:0.03571429;stroke-miterlimit:4;stroke-opacity:1;stroke-dasharray:none" />
      <path
         inkscape:connector-curvature="0"
         id="path5873-6-9"
         d="m 269.58781,288.33025 0,-9.46429 9.46428,0 9.46429,0 0,9.46429 0,9.46428 -9.46429,0 -9.46428,0 0,-9.46428 z"
         style="fill:#cccccc;fill-opacity:1;stroke:#000000;stroke-width:0.03571429;stroke-miterlimit:4;stroke-opacity:1;stroke-dasharray:none" />
      <path
         inkscape:connector-curvature="0"
         id="path5873-6-5"
         d="m 289.58781,188.33025 0,-9.46429 9.46428,0 9.46429,0 0,9.46429 0,9.46428 -9.46429,0 -9.46428,0 0,-9.46428 z"
         style="fill:#cccccc;fill-opacity:1;stroke:#000000;stroke-width:0.03571429;stroke-miterlimit:4;stroke-opacity:1;stroke-dasharray:none" />
      <path
         inkscape:connector-curvature="0"
         id="path5873-89-8"
         d="m 289.58781,208.33025 0,-9.46429 9.46428,0 9.46429,0 0,9.46429 0,9.46428 -9.46429,0 -9.46428,0 0,-9.46428 z"
         style="fill:#cccccc;fill-opacity:1;stroke:#000000;stroke-width:0.03571429;stroke-miterlimit:4;stroke-opacity:1;stroke-dasharray:none" />
      <path
         inkscape:connector-curvature="0"
         id="path5873-3-4"
         d="m 289.58781,228.33025 0,-9.46429 9.46428,0 9.46429,0 0,9.46429 0,9.46428 -9.46429,0 -9.46428,0 0,-9.46428 z"
         style="fill:#cccccc;fill-opacity:1;stroke:#000000;stroke-width:0.03571429;stroke-miterlimit:4;stroke-opacity:1;stroke-dasharray:none" />
      <path
         inkscape:connector-curvature="0"
         id="path5873-899-8"
         d="m 289.58781,248.33025 0,-9.46429 9.46428,0 9.46429,0 0,9.46429 0,9.46428 -9.46429,0 -9.46428,0 0,-9.46428 z"
         style="fill:#cccccc;fill-opacity:1;stroke:#000000;stroke-width:0.03571429;stroke-miterlimit:4;stroke-opacity:1;stroke-dasharray:none" />
      <path
         inkscape:connector-curvature="0"
         id="path5873-0-5"
         d="m 289.58781,268.33025 0,-9.46429 9.46428,0 9.46429,0 0,9.46429 0,9.46428 -9.46429,0 -9.46428,0 0,-9.46428 z"
         style="fill:#cccccc;fill-opacity:1;stroke:#000000;stroke-width:0.03571429;stroke-miterlimit:4;stroke-opacity:1;stroke-dasharray:none" />
      <path
         inkscape:connector-curvature="0"
         id="path5873-6-4-8"
         d="m 289.5198,168.33025 0,-9.46429 9.46428,0 9.46429,0 0,9.46429 0,9.46428 -9.46429,0 -9.46428,0 0,-9.46428 z"
         style="fill:#cccccc;fill-opacity:1;stroke:#000000;stroke-width:0.03571429;stroke-miterlimit:4;stroke-opacity:1;stroke-dasharray:none" />
      <path
         inkscape:connector-curvature="0"
         id="path5873-6-9-6"
         d="m 289.58781,288.33025 0,-9.46429 9.46428,0 9.46429,0 0,9.46429 0,9.46428 -9.46429,0 -9.46428,0 0,-9.46428 z"
         style="fill:#cccccc;fill-opacity:1;stroke:#000000;stroke-width:0.03571429;stroke-miterlimit:4;stroke-opacity:1;stroke-dasharray:none" />
      <path
         inkscape:connector-curvature="0"
         id="path5873-6-1"
         d="m 149.58781,188.33025 0,-9.46429 9.46428,0 9.46429,0 0,9.46429 0,9.46428 -9.46429,0 -9.46428,0 0,-9.46428 z"
         style="fill:#cccccc;fill-opacity:1;stroke:#000000;stroke-width:0.03571429;stroke-miterlimit:4;stroke-opacity:1;stroke-dasharray:none" />
      <path
         inkscape:connector-curvature="0"
         id="path5873-89-2"
         d="m 149.58781,208.33025 0,-9.46429 9.46428,0 9.46429,0 0,9.46429 0,9.46428 -9.46429,0 -9.46428,0 0,-9.46428 z"
         style="fill:#cccccc;fill-opacity:1;stroke:#000000;stroke-width:0.03571429;stroke-miterlimit:4;stroke-opacity:1;stroke-dasharray:none" />
      <path
         inkscape:connector-curvature="0"
         id="path5873-3-9"
         d="m 149.58781,228.33025 0,-9.46429 9.46428,0 9.46429,0 0,9.46429 0,9.46428 -9.46429,0 -9.46428,0 0,-9.46428 z"
         style="fill:#cccccc;fill-opacity:1;stroke:#000000;stroke-width:0.03571429;stroke-miterlimit:4;stroke-opacity:1;stroke-dasharray:none" />
      <path
         inkscape:connector-curvature="0"
         id="path5873-899-5"
         d="m 149.58781,248.33025 0,-9.46429 9.46428,0 9.46429,0 0,9.46429 0,9.46428 -9.46429,0 -9.46428,0 0,-9.46428 z"
         style="fill:#cccccc;fill-opacity:1;stroke:#000000;stroke-width:0.03571429;stroke-miterlimit:4;stroke-opacity:1;stroke-dasharray:none" />
      <path
         inkscape:connector-curvature="0"
         id="path5873-0-9"
         d="m 149.58781,268.33025 0,-9.46429 9.46428,0 9.46429,0 0,9.46429 0,9.46428 -9.46429,0 -9.46428,0 0,-9.46428 z"
         style="fill:#cccccc;fill-opacity:1;stroke:#000000;stroke-width:0.03571429;stroke-miterlimit:4;stroke-opacity:1;stroke-dasharray:none" />
      <path
         inkscape:connector-curvature="0"
         id="path5873-6-4-2"
         d="m 149.58781,168.33025 0,-9.46429 9.46428,0 9.46429,0 0,9.46429 0,9.46428 -9.46429,0 -9.46428,0 0,-9.46428 z"
         style="fill:#cccccc;fill-opacity:1;stroke:#000000;stroke-width:0.03571429;stroke-miterlimit:4;stroke-opacity:1;stroke-dasharray:none" />
      <path
         inkscape:connector-curvature="0"
         id="path5873-6-9-60"
         d="m 149.58781,288.33025 0,-9.46429 9.46428,0 9.46429,0 0,9.46429 0,9.46428 -9.46429,0 -9.46428,0 0,-9.46428 z"
         style="fill:#cccccc;fill-opacity:1;stroke:#000000;stroke-width:0.03571429;stroke-miterlimit:4;stroke-opacity:1;stroke-dasharray:none" />
      <text
         sodipodi:linespacing="125%"
         id="text4865"
         y="171.97038"
         x="155.87338"
         style="font-size:10px;font-style:normal;font-weight:normal;line-height:125%;letter-spacing:0px;word-spacing:0px;fill:#000000;fill-opacity:1;stroke:none;font-family:Sans"
         xml:space="preserve"><tspan
           y="171.97038"
           x="155.87338"
           id="tspan4867"
           sodipodi:role="line">0</tspan></text>
      <text
         sodipodi:linespacing="125%"
         id="text4865-3"
         y="171.97038"
         x="175.87338"
         style="font-size:10px;font-style:normal;font-weight:normal;line-height:125%;letter-spacing:0px;word-spacing:0px;fill:#000000;fill-opacity:1;stroke:none;font-family:Sans"
         xml:space="preserve"><tspan
           y="171.97038"
           x="175.87338"
           id="tspan4867-3"
           sodipodi:role="line">0</tspan></text>
      <text
         sodipodi:linespacing="125%"
         id="text4865-7"
         y="171.97038"
         x="195.80537"
         style="font-size:10px;font-style:normal;font-weight:normal;line-height:125%;letter-spacing:0px;word-spacing:0px;fill:#000000;fill-opacity:1;stroke:none;font-family:Sans"
         xml:space="preserve"><tspan
           y="171.97038"
           x="195.80537"
           id="tspan4867-0"
           sodipodi:role="line">0</tspan></text>
      <text
         sodipodi:linespacing="125%"
         id="text4865-37"
         y="171.97038"
         x="215.87338"
         style="font-size:10px;font-style:normal;font-weight:normal;line-height:125%;letter-spacing:0px;word-spacing:0px;fill:#000000;fill-opacity:1;stroke:none;font-family:Sans"
         xml:space="preserve"><tspan
           y="171.97038"
           x="215.87338"
           id="tspan4867-4"
           sodipodi:role="line">0</tspan></text>
      <text
         sodipodi:linespacing="125%"
         id="text4865-4"
         y="171.97038"
         x="235.87338"
         style="font-size:10px;font-style:normal;font-weight:normal;line-height:125%;letter-spacing:0px;word-spacing:0px;fill:#000000;fill-opacity:1;stroke:none;font-family:Sans"
         xml:space="preserve"><tspan
           y="171.97038"
           x="235.87338"
           id="tspan4867-1"
           sodipodi:role="line">0</tspan></text>
      <text
         sodipodi:linespacing="125%"
         id="text4865-2"
         y="171.97038"
         x="255.80537"
         style="font-size:10px;font-style:normal;font-weight:normal;line-height:125%;letter-spacing:0px;word-spacing:0px;fill:#000000;fill-opacity:1;stroke:none;font-family:Sans"
         xml:space="preserve"><tspan
           y="171.97038"
           x="255.80537"
           id="tspan4867-00"
           sodipodi:role="line">0</tspan></text>
      <text
         sodipodi:linespacing="125%"
         id="text4865-5"
         y="171.97038"
         x="275.87338"
         style="font-size:10px;font-style:normal;font-weight:normal;line-height:125%;letter-spacing:0px;word-spacing:0px;fill:#000000;fill-opacity:1;stroke:none;font-family:Sans"
         xml:space="preserve"><tspan
           y="171.97038"
           x="275.87338"
           id="tspan4867-06"
           sodipodi:role="line">0</tspan></text>
      <text
         sodipodi:linespacing="125%"
         id="text4865-39"
         y="171.97038"
         x="295.80536"
         style="font-size:10px;font-style:normal;font-weight:normal;line-height:125%;letter-spacing:0px;word-spacing:0px;fill:#000000;fill-opacity:1;stroke:none;font-family:Sans"
         xml:space="preserve"><tspan
           y="171.97038"
           x="295.80536"
           id="tspan4867-7"
           sodipodi:role="line">0</tspan></text>
      <text
         sodipodi:linespacing="125%"
         id="text4865-49"
         y="191.97038"
         x="275.87338"
         style="font-size:10px;font-style:normal;font-weight:normal;line-height:125%;letter-spacing:0px;word-spacing:0px;fill:#000000;fill-opacity:1;stroke:none;font-family:Sans"
         xml:space="preserve"><tspan
           y="191.97038"
           x="275.87338"
           id="tspan4867-2"
           sodipodi:role="line">0</tspan></text>
      <text
         sodipodi:linespacing="125%"
         id="text4865-9"
         y="191.97038"
         x="295.87338"
         style="font-size:10px;font-style:normal;font-weight:normal;line-height:125%;letter-spacing:0px;word-spacing:0px;fill:#000000;fill-opacity:1;stroke:none;font-family:Sans"
         xml:space="preserve"><tspan
           y="191.97038"
           x="295.87338"
           id="tspan4867-5"
           sodipodi:role="line">0</tspan></text>
      <text
         sodipodi:linespacing="125%"
         id="text4865-49-6"
         y="191.97038"
         x="255.87338"
         style="font-size:10px;font-style:normal;font-weight:normal;line-height:125%;letter-spacing:0px;word-spacing:0px;fill:#000000;fill-opacity:1;stroke:none;font-family:Sans"
         xml:space="preserve"><tspan
           y="191.97038"
           x="255.87338"
           id="tspan4867-2-1"
           sodipodi:role="line">0</tspan></text>
      <text
         sodipodi:linespacing="125%"
         id="text4865-49-2"
         y="191.97038"
         x="235.87338"
         style="font-size:10px;font-style:normal;font-weight:normal;line-height:125%;letter-spacing:0px;word-spacing:0px;fill:#000000;fill-opacity:1;stroke:none;font-family:Sans"
         xml:space="preserve"><tspan
           y="191.97038"
           x="235.87338"
           id="tspan4867-2-9"
           sodipodi:role="line">0</tspan></text>
      <text
         sodipodi:linespacing="125%"
         id="text4865-49-4"
         y="191.97038"
         x="215.87338"
         style="font-size:10px;font-style:normal;font-weight:normal;line-height:125%;letter-spacing:0px;word-spacing:0px;fill:#000000;fill-opacity:1;stroke:none;font-family:Sans"
         xml:space="preserve"><tspan
           y="191.97038"
           x="215.87338"
           id="tspan4867-2-91"
           sodipodi:role="line">0</tspan></text>
      <text
         sodipodi:linespacing="125%"
         id="text4865-49-9"
         y="191.97038"
         x="195.87338"
         style="font-size:10px;font-style:normal;font-weight:normal;line-height:125%;letter-spacing:0px;word-spacing:0px;fill:#000000;fill-opacity:1;stroke:none;font-family:Sans"
         xml:space="preserve"><tspan
           y="191.97038"
           x="195.87338"
           id="tspan4867-2-7"
           sodipodi:role="line">0</tspan></text>
      <text
         sodipodi:linespacing="125%"
         id="text4865-49-65"
         y="191.97038"
         x="175.87338"
         style="font-size:10px;font-style:normal;font-weight:normal;line-height:125%;letter-spacing:0px;word-spacing:0px;fill:#000000;fill-opacity:1;stroke:none;font-family:Sans"
         xml:space="preserve"><tspan
           y="191.97038"
           x="175.87338"
           id="tspan4867-2-0"
           sodipodi:role="line">0</tspan></text>
      <text
         sodipodi:linespacing="125%"
         id="text4865-49-0"
         y="191.97038"
         x="155.87338"
         style="font-size:10px;font-style:normal;font-weight:normal;line-height:125%;letter-spacing:0px;word-spacing:0px;fill:#000000;fill-opacity:1;stroke:none;font-family:Sans"
         xml:space="preserve"><tspan
           y="191.97038"
           x="155.87338"
           id="tspan4867-2-73"
           sodipodi:role="line">0</tspan></text>
      <text
         sodipodi:linespacing="125%"
         id="text4865-49-5"
         y="211.97038"
         x="155.87338"
         style="font-size:10px;font-style:normal;font-weight:normal;line-height:125%;letter-spacing:0px;word-spacing:0px;fill:#000000;fill-opacity:1;stroke:none;font-family:Sans"
         xml:space="preserve"><tspan
           y="211.97038"
           x="155.87338"
           id="tspan4867-2-8"
           sodipodi:role="line">0</tspan></text>
      <text
         sodipodi:linespacing="125%"
         id="text4865-49-91"
         y="211.97038"
         x="175.87338"
         style="font-size:10px;font-style:normal;font-weight:normal;line-height:125%;letter-spacing:0px;word-spacing:0px;fill:#000000;fill-opacity:1;stroke:none;font-family:Sans"
         xml:space="preserve"><tspan
           y="211.97038"
           x="175.87338"
           id="tspan4867-2-79"
           sodipodi:role="line">0</tspan></text>
      <text
         sodipodi:linespacing="125%"
         id="text4865-49-59"
         y="231.97038"
         x="215.87338"
         style="font-size:10px;font-style:normal;font-weight:normal;line-height:125%;letter-spacing:0px;word-spacing:0px;fill:#000000;fill-opacity:1;stroke:none;font-family:Sans"
         xml:space="preserve"><tspan
           y="231.97038"
           x="215.87338"
           id="tspan4867-2-3"
           sodipodi:role="line">0</tspan></text>
      <text
         sodipodi:linespacing="125%"
         id="text4865-49-64"
         y="231.97038"
         x="235.87338"
         style="font-size:10px;font-style:normal;font-weight:normal;line-height:125%;letter-spacing:0px;word-spacing:0px;fill:#000000;fill-opacity:1;stroke:none;font-family:Sans"
         xml:space="preserve"><tspan
           y="231.97038"
           x="235.87338"
           id="tspan4867-2-5"
           sodipodi:role="line">0</tspan></text>
      <text
         sodipodi:linespacing="125%"
         id="text4865-49-8"
         y="211.97038"
         x="275.87338"
         style="font-size:10px;font-style:normal;font-weight:normal;line-height:125%;letter-spacing:0px;word-spacing:0px;fill:#000000;fill-opacity:1;stroke:none;font-family:Sans"
         xml:space="preserve"><tspan
           y="211.97038"
           x="275.87338"
           id="tspan4867-2-89"
           sodipodi:role="line">0</tspan></text>
      <text
         sodipodi:linespacing="125%"
         id="text4865-49-1"
         y="211.97038"
         x="295.87338"
         style="font-size:10px;font-style:normal;font-weight:normal;line-height:125%;letter-spacing:0px;word-spacing:0px;fill:#000000;fill-opacity:1;stroke:none;font-family:Sans"
         xml:space="preserve"><tspan
           y="211.97038"
           x="295.87338"
           id="tspan4867-2-4"
           sodipodi:role="line">0</tspan></text>
      <text
         sodipodi:linespacing="125%"
         id="text4865-49-03"
         y="231.97038"
         x="275.87338"
         style="font-size:10px;font-style:normal;font-weight:normal;line-height:125%;letter-spacing:0px;word-spacing:0px;fill:#000000;fill-opacity:1;stroke:none;font-family:Sans"
         xml:space="preserve"><tspan
           y="231.97038"
           x="275.87338"
           id="tspan4867-2-6"
           sodipodi:role="line">0</tspan></text>
      <text
         sodipodi:linespacing="125%"
         id="text4865-49-657"
         y="231.97038"
         x="295.87338"
         style="font-size:10px;font-style:normal;font-weight:normal;line-height:125%;letter-spacing:0px;word-spacing:0px;fill:#000000;fill-opacity:1;stroke:none;font-family:Sans"
         xml:space="preserve"><tspan
           y="231.97038"
           x="295.87338"
           id="tspan4867-2-74"
           sodipodi:role="line">0</tspan></text>
      <text
         sodipodi:linespacing="125%"
         id="text4865-49-53"
         y="251.97038"
         x="275.87338"
         style="font-size:10px;font-style:normal;font-weight:normal;line-height:125%;letter-spacing:0px;word-spacing:0px;fill:#000000;fill-opacity:1;stroke:none;font-family:Sans"
         xml:space="preserve"><tspan
           y="251.97038"
           x="275.87338"
           id="tspan4867-2-46"
           sodipodi:role="line">0</tspan></text>
      <text
         sodipodi:linespacing="125%"
         id="text4865-49-09"
         y="251.97038"
         x="295.87338"
         style="font-size:10px;font-style:normal;font-weight:normal;line-height:125%;letter-spacing:0px;word-spacing:0px;fill:#000000;fill-opacity:1;stroke:none;font-family:Sans"
         xml:space="preserve"><tspan
           y="251.97038"
           x="295.87338"
           id="tspan4867-2-30"
           sodipodi:role="line">0</tspan></text>
      <text
         sodipodi:linespacing="125%"
         id="text4865-49-94"
         y="271.97037"
         x="275.87338"
         style="font-size:10px;font-style:normal;font-weight:normal;line-height:125%;letter-spacing:0px;word-spacing:0px;fill:#000000;fill-opacity:1;stroke:none;font-family:Sans"
         xml:space="preserve"><tspan
           y="271.97037"
           x="275.87338"
           id="tspan4867-2-00"
           sodipodi:role="line">0</tspan></text>
      <text
         sodipodi:linespacing="125%"
         id="text4865-49-29"
         y="271.97037"
         x="295.87338"
         style="font-size:10px;font-style:normal;font-weight:normal;line-height:125%;letter-spacing:0px;word-spacing:0px;fill:#000000;fill-opacity:1;stroke:none;font-family:Sans"
         xml:space="preserve"><tspan
           y="271.97037"
           x="295.87338"
           id="tspan4867-2-38"
           sodipodi:role="line">0</tspan></text>
      <text
         sodipodi:linespacing="125%"
         id="text4865-49-50"
         y="271.97037"
         x="255.87338"
         style="font-size:10px;font-style:normal;font-weight:normal;line-height:125%;letter-spacing:0px;word-spacing:0px;fill:#000000;fill-opacity:1;stroke:none;font-family:Sans"
         xml:space="preserve"><tspan
           y="271.97037"
           x="255.87338"
           id="tspan4867-2-75"
           sodipodi:role="line">0</tspan></text>
      <text
         sodipodi:linespacing="125%"
         id="text4865-49-98"
         y="291.97037"
         x="255.87338"
         style="font-size:10px;font-style:normal;font-weight:normal;line-height:125%;letter-spacing:0px;word-spacing:0px;fill:#000000;fill-opacity:1;stroke:none;font-family:Sans"
         xml:space="preserve"><tspan
           y="291.97037"
           x="255.87338"
           id="tspan4867-2-2"
           sodipodi:role="line">0</tspan></text>
      <text
         sodipodi:linespacing="125%"
         id="text4865-49-22"
         y="291.97037"
         x="275.87338"
         style="font-size:10px;font-style:normal;font-weight:normal;line-height:125%;letter-spacing:0px;word-spacing:0px;fill:#000000;fill-opacity:1;stroke:none;font-family:Sans"
         xml:space="preserve"><tspan
           y="291.97037"
           x="275.87338"
           id="tspan4867-2-88"
           sodipodi:role="line">0</tspan></text>
      <text
         sodipodi:linespacing="125%"
         id="text4865-49-7"
         y="291.97037"
         x="295.87338"
         style="font-size:10px;font-style:normal;font-weight:normal;line-height:125%;letter-spacing:0px;word-spacing:0px;fill:#000000;fill-opacity:1;stroke:none;font-family:Sans"
         xml:space="preserve"><tspan
           y="291.97037"
           x="295.87338"
           id="tspan4867-2-76"
           sodipodi:role="line">0</tspan></text>
      <text
         sodipodi:linespacing="125%"
         id="text4865-49-13"
         y="291.97037"
         x="235.87338"
         style="font-size:10px;font-style:normal;font-weight:normal;line-height:125%;letter-spacing:0px;word-spacing:0px;fill:#000000;fill-opacity:1;stroke:none;font-family:Sans"
         xml:space="preserve"><tspan
           y="291.97037"
           x="235.87338"
           id="tspan4867-2-17"
           sodipodi:role="line">0</tspan></text>
      <text
         sodipodi:linespacing="125%"
         id="text4865-49-11"
         y="271.97037"
         x="235.87338"
         style="font-size:10px;font-style:normal;font-weight:normal;line-height:125%;letter-spacing:0px;word-spacing:0px;fill:#000000;fill-opacity:1;stroke:none;font-family:Sans"
         xml:space="preserve"><tspan
           y="271.97037"
           x="235.87338"
           id="tspan4867-2-744"
           sodipodi:role="line">0</tspan></text>
      <text
         sodipodi:linespacing="125%"
         id="text4865-49-81"
         y="291.97037"
         x="215.87338"
         style="font-size:10px;font-style:normal;font-weight:normal;line-height:125%;letter-spacing:0px;word-spacing:0px;fill:#000000;fill-opacity:1;stroke:none;font-family:Sans"
         xml:space="preserve"><tspan
           y="291.97037"
           x="215.87338"
           id="tspan4867-2-40"
           sodipodi:role="line">0</tspan></text>
      <text
         sodipodi:linespacing="125%"
         id="text4865-49-3"
         y="271.97037"
         x="215.87338"
         style="font-size:10px;font-style:normal;font-weight:normal;line-height:125%;letter-spacing:0px;word-spacing:0px;fill:#000000;fill-opacity:1;stroke:none;font-family:Sans"
         xml:space="preserve"><tspan
           y="271.97037"
           x="215.87338"
           id="tspan4867-2-33"
           sodipodi:role="line">0</tspan></text>
      <text
         sodipodi:linespacing="125%"
         id="text4865-49-10"
         y="271.97037"
         x="195.87338"
         style="font-size:10px;font-style:normal;font-weight:normal;line-height:125%;letter-spacing:0px;word-spacing:0px;fill:#000000;fill-opacity:1;stroke:none;font-family:Sans"
         xml:space="preserve"><tspan
           y="271.97037"
           x="195.87338"
           id="tspan4867-2-58"
           sodipodi:role="line">0</tspan></text>
      <text
         sodipodi:linespacing="125%"
         id="text4865-49-66"
         y="291.97037"
         x="195.87338"
         style="font-size:10px;font-style:normal;font-weight:normal;line-height:125%;letter-spacing:0px;word-spacing:0px;fill:#000000;fill-opacity:1;stroke:none;font-family:Sans"
         xml:space="preserve"><tspan
           y="291.97037"
           x="195.87338"
           id="tspan4867-2-98"
           sodipodi:role="line">0</tspan></text>
      <text
         sodipodi:linespacing="125%"
         id="text4865-49-83"
         y="291.97037"
         x="175.87338"
         style="font-size:10px;font-style:normal;font-weight:normal;line-height:125%;letter-spacing:0px;word-spacing:0px;fill:#000000;fill-opacity:1;stroke:none;font-family:Sans"
         xml:space="preserve"><tspan
           y="291.97037"
           x="175.87338"
           id="tspan4867-2-892"
           sodipodi:role="line">0</tspan></text>
      <text
         sodipodi:linespacing="125%"
         id="text4865-49-57"
         y="271.36218"
         x="175.87338"
         style="font-size:10px;font-style:normal;font-weight:normal;line-height:125%;letter-spacing:0px;word-spacing:0px;fill:#000000;fill-opacity:1;stroke:none;font-family:Sans"
         xml:space="preserve"><tspan
           y="271.36218"
           x="175.87338"
           id="tspan4867-2-50"
           sodipodi:role="line">0</tspan></text>
      <text
         sodipodi:linespacing="125%"
         id="text4865-49-2-8"
         y="231.97038"
         x="175.87338"
         style="font-size:10px;font-style:normal;font-weight:normal;line-height:125%;letter-spacing:0px;word-spacing:0px;fill:#000000;fill-opacity:1;stroke:none;font-family:Sans"
         xml:space="preserve"><tspan
           y="231.97038"
           x="175.87338"
           id="tspan4867-2-9-8"
           sodipodi:role="line">0</tspan></text>
      <text
         sodipodi:linespacing="125%"
         id="text4865-49-2-9"
         y="231.97038"
         x="155.87338"
         style="font-size:10px;font-style:normal;font-weight:normal;line-height:125%;letter-spacing:0px;word-spacing:0px;fill:#000000;fill-opacity:1;stroke:none;font-family:Sans"
         xml:space="preserve"><tspan
           y="231.97038"
           x="155.87338"
           id="tspan4867-2-9-3"
           sodipodi:role="line">0</tspan></text>
      <text
         sodipodi:linespacing="125%"
         id="text4865-49-2-1"
         y="251.97038"
         x="155.87338"
         style="font-size:10px;font-style:normal;font-weight:normal;line-height:125%;letter-spacing:0px;word-spacing:0px;fill:#000000;fill-opacity:1;stroke:none;font-family:Sans"
         xml:space="preserve"><tspan
           y="251.97038"
           x="155.87338"
           id="tspan4867-2-9-4"
           sodipodi:role="line">0</tspan></text>
      <text
         sodipodi:linespacing="125%"
         id="text4865-49-2-3"
         y="251.97038"
         x="175.87338"
         style="font-size:10px;font-style:normal;font-weight:normal;line-height:125%;letter-spacing:0px;word-spacing:0px;fill:#000000;fill-opacity:1;stroke:none;font-family:Sans"
         xml:space="preserve"><tspan
           y="251.97038"
           x="175.87338"
           id="tspan4867-2-9-5"
           sodipodi:role="line">0</tspan></text>
      <text
         sodipodi:linespacing="125%"
         id="text4865-49-2-16"
         y="271.9704"
         x="155.87338"
         style="font-size:10px;font-style:normal;font-weight:normal;line-height:125%;letter-spacing:0px;word-spacing:0px;fill:#000000;fill-opacity:1;stroke:none;font-family:Sans"
         xml:space="preserve"><tspan
           y="271.9704"
           x="155.87338"
           id="tspan4867-2-9-52"
           sodipodi:role="line">0</tspan></text>
      <text
         sodipodi:linespacing="125%"
         id="text4865-49-2-84"
         y="291.9704"
         x="155.87338"
         style="font-size:10px;font-style:normal;font-weight:normal;line-height:125%;letter-spacing:0px;word-spacing:0px;fill:#000000;fill-opacity:1;stroke:none;font-family:Sans"
         xml:space="preserve"><tspan
           y="291.9704"
           x="155.87338"
           id="tspan4867-2-9-86"
           sodipodi:role="line">0</tspan></text>
    </g>
  </g>
</svg>
